<svg width="25" height="24" viewBox="0 0 25 24" fill="none" xmlns="http://www.w3.org/2000/svg">
<path d="M11.3335 2H9.3335C4.3335 2 2.3335 4 2.3335 9V15C2.3335 20 4.3335 22 9.3335 22H15.3335C20.3335 22 22.3335 20 22.3335 15V13" stroke="#FFFBFF" stroke-linecap="round" stroke-linejoin="round"/>
<path d="M16.3734 3.02001L8.49337 10.9C8.19337 11.2 7.89337 11.79 7.83337 12.22L7.40338 15.23C7.24338 16.32 8.01338 17.08 9.10338 16.93L12.1134 16.5C12.5334 16.44 13.1234 16.14 13.4334 15.84L21.3134 7.96001C22.6734 6.60001 23.3134 5.02001 21.3134 3.02001C19.3134 1.02001 17.7334 1.66001 16.3734 3.02001Z" stroke="#FFFBFF" stroke-miterlimit="10" stroke-linecap="round" stroke-linejoin="round"/>
<path d="M15.2434 4.15002C15.9134 6.54002 17.7834 8.41002 20.1834 9.09002" stroke="#FFFBFF" stroke-miterlimit="10" stroke-linecap="round" stroke-linejoin="round"/>
</svg>
