<svg width="40" height="40" viewBox="0 0 40 40" fill="none" xmlns="http://www.w3.org/2000/svg">
<path d="M16.7833 4.70007L5.23335 13.9501C3.93335 14.9835 3.09999 17.1669 3.38333 18.8002L5.59997 32.0668C5.99997 34.4335 8.26665 36.3503 10.6667 36.3503H29.3333C31.7167 36.3503 34 34.4168 34.4 32.0668L36.6167 18.8002C36.8833 17.1669 36.05 14.9835 34.7666 13.9501L23.2166 4.71675C21.4333 3.28342 18.55 3.2834 16.7833 4.70007Z" stroke="#1C1B1E" stroke-width="2" stroke-linecap="round" stroke-linejoin="round"/>
<path d="M16.4667 23.9671C18.5833 21.9504 21.4167 21.9504 23.5333 23.9671" stroke="#1C1B1E" stroke-width="2" stroke-linecap="round" stroke-linejoin="round"/>
<path d="M27.0666 20.4336C26.1666 19.5503 25.1666 18.867 24.1333 18.367C21.4833 17.1003 18.5166 17.1003 15.85 18.367C14.8166 18.867 13.8333 19.5503 12.9166 20.4336" stroke="#1C1B1E" stroke-width="2" stroke-linecap="round" stroke-linejoin="round"/>
<path d="M19.9925 28.3333H20.0075" stroke="#1C1B1E" stroke-width="2" stroke-linecap="round" stroke-linejoin="round"/>
</svg>
