<svg width="54" height="62" viewBox="0 0 54 62" fill="none" xmlns="http://www.w3.org/2000/svg">
<path fill-rule="evenodd" clip-rule="evenodd" d="M4.20039 55.7001V6.3001H3.25039C2.49452 6.3001 1.76961 5.99983 1.23514 5.46535C0.700657 4.93087 0.400391 4.20596 0.400391 3.4501C0.400391 2.69423 0.700657 1.96932 1.23514 1.43484C1.76961 0.900364 2.49452 0.600098 3.25039 0.600098H50.7504C51.5063 0.600098 52.2312 0.900364 52.7656 1.43484C53.3001 1.96932 53.6004 2.69423 53.6004 3.4501C53.6004 4.20596 53.3001 4.93087 52.7656 5.46535C52.2312 5.99983 51.5063 6.3001 50.7504 6.3001H49.8004V55.7001H50.7504C51.5063 55.7001 52.2312 56.0004 52.7656 56.5348C53.3001 57.0693 53.6004 57.7942 53.6004 58.5501C53.6004 59.306 53.3001 60.0309 52.7656 60.5654C52.2312 61.0998 51.5063 61.4001 50.7504 61.4001H37.4504C36.6945 61.4001 35.9696 61.0998 35.4351 60.5654C34.9007 60.0309 34.6004 59.306 34.6004 58.5501V49.0501C34.6004 48.2942 34.3001 47.5693 33.7656 47.0348C33.2312 46.5004 32.5063 46.2001 31.7504 46.2001H22.2504C21.4945 46.2001 20.7696 46.5004 20.2351 47.0348C19.7007 47.5693 19.4004 48.2942 19.4004 49.0501V58.5501C19.4004 59.306 19.1001 60.0309 18.5656 60.5654C18.0312 61.0998 17.3063 61.4001 16.5504 61.4001H3.25039C2.49452 61.4001 1.76961 61.0998 1.23514 60.5654C0.700657 60.0309 0.400391 59.306 0.400391 58.5501C0.400391 57.7942 0.700657 57.0693 1.23514 56.5348C1.76961 56.0004 2.49452 55.7001 3.25039 55.7001H4.20039ZM15.6004 13.9001C15.6004 13.3962 15.8006 12.9129 16.1569 12.5566C16.5132 12.2003 16.9965 12.0001 17.5004 12.0001H21.3004C21.8043 12.0001 22.2876 12.2003 22.6439 12.5566C23.0002 12.9129 23.2004 13.3962 23.2004 13.9001V17.7001C23.2004 18.204 23.0002 18.6873 22.6439 19.0436C22.2876 19.3999 21.8043 19.6001 21.3004 19.6001H17.5004C16.9965 19.6001 16.5132 19.3999 16.1569 19.0436C15.8006 18.6873 15.6004 18.204 15.6004 17.7001V13.9001ZM17.5004 27.2001C16.9965 27.2001 16.5132 27.4003 16.1569 27.7566C15.8006 28.1129 15.6004 28.5962 15.6004 29.1001V32.9001C15.6004 33.404 15.8006 33.8873 16.1569 34.2436C16.5132 34.5999 16.9965 34.8001 17.5004 34.8001H21.3004C21.8043 34.8001 22.2876 34.5999 22.6439 34.2436C23.0002 33.8873 23.2004 33.404 23.2004 32.9001V29.1001C23.2004 28.5962 23.0002 28.1129 22.6439 27.7566C22.2876 27.4003 21.8043 27.2001 21.3004 27.2001H17.5004ZM30.8004 13.9001C30.8004 13.3962 31.0006 12.9129 31.3569 12.5566C31.7132 12.2003 32.1965 12.0001 32.7004 12.0001H36.5004C37.0043 12.0001 37.4876 12.2003 37.8439 12.5566C38.2002 12.9129 38.4004 13.3962 38.4004 13.9001V17.7001C38.4004 18.204 38.2002 18.6873 37.8439 19.0436C37.4876 19.3999 37.0043 19.6001 36.5004 19.6001H32.7004C32.1965 19.6001 31.7132 19.3999 31.3569 19.0436C31.0006 18.6873 30.8004 18.204 30.8004 17.7001V13.9001ZM32.7004 27.2001C32.1965 27.2001 31.7132 27.4003 31.3569 27.7566C31.0006 28.1129 30.8004 28.5962 30.8004 29.1001V32.9001C30.8004 33.404 31.0006 33.8873 31.3569 34.2436C31.7132 34.5999 32.1965 34.8001 32.7004 34.8001H36.5004C37.0043 34.8001 37.4876 34.5999 37.8439 34.2436C38.2002 33.8873 38.4004 33.404 38.4004 32.9001V29.1001C38.4004 28.5962 38.2002 28.1129 37.8439 27.7566C37.4876 27.4003 37.0043 27.2001 36.5004 27.2001H32.7004Z" fill="white"/>
</svg>
