<svg width="24" height="24" viewBox="0 0 24 24" fill="none" xmlns="http://www.w3.org/2000/svg">
<path d="M15.3002 19.83L19.8302 15.3C20.7802 14.35 21.2902 13.04 21.2202 11.7L20.9802 6.69998C20.8902 4.69998 19.3002 3.10998 17.3102 3.00998L12.3102 2.76998C10.9702 2.70998 9.6602 3.20998 8.7102 4.15998L4.18019 8.68997C2.32019 10.55 2.32019 13.57 4.18019 15.44L8.5702 19.83C10.4202 21.7 13.4402 21.7 15.3002 19.83ZM11.6202 9.49998C11.6202 7.90998 12.9102 6.61998 14.5002 6.61998C16.0902 6.61998 17.3802 7.90998 17.3802 9.49998C17.3802 11.09 16.0902 12.38 14.5002 12.38C12.9102 12.38 11.6202 11.09 11.6202 9.49998Z" fill="#F08619"/>
</svg>
