<svg width="50" height="50" viewBox="0 0 50 50" fill="none" xmlns="http://www.w3.org/2000/svg">
<path d="M20.9375 5.27085L8.39587 13.4583C4.37504 16.0833 4.37504 21.9583 8.39587 24.5833L20.9375 32.7708C23.1875 34.25 26.8959 34.25 29.1459 32.7708L41.625 24.5833C45.625 21.9583 45.625 16.1042 41.625 13.4792L29.1459 5.29168C26.8959 3.79168 23.1875 3.79168 20.9375 5.27085Z" stroke="#CD0606" stroke-width="3" stroke-linecap="round" stroke-linejoin="round"/>
<path d="M11.7292 27.25L11.7084 37.0208C11.7084 39.6667 13.75 42.5 16.25 43.3333L22.8959 45.5417C24.0417 45.9167 25.9375 45.9167 27.1042 45.5417L33.75 43.3333C36.25 42.5 38.2917 39.6667 38.2917 37.0208V27.3542" stroke="#CD0606" stroke-width="3" stroke-linecap="round" stroke-linejoin="round"/>
<path d="M44.5834 31.25V18.75" stroke="#CD0606" stroke-width="3" stroke-linecap="round" stroke-linejoin="round"/>
</svg>
