<svg width="23" height="27" viewBox="0 0 23 27" fill="none" xmlns="http://www.w3.org/2000/svg">
<path fill-rule="evenodd" clip-rule="evenodd" d="M1.64286 24.4688V2.53125H1.23214C0.905358 2.53125 0.591958 2.39791 0.360886 2.16056C0.129815 1.92321 0 1.60129 0 1.26562C0 0.92996 0.129815 0.608044 0.360886 0.370693C0.591958 0.133342 0.905358 7.0736e-09 1.23214 0H21.7679C22.0946 7.0736e-09 22.408 0.133342 22.6391 0.370693C22.8702 0.608044 23 0.92996 23 1.26562C23 1.60129 22.8702 1.92321 22.6391 2.16056C22.408 2.39791 22.0946 2.53125 21.7679 2.53125H21.3571V24.4688H21.7679C22.0946 24.4688 22.408 24.6021 22.6391 24.8394C22.8702 25.0768 23 25.3987 23 25.7344C23 26.07 22.8702 26.392 22.6391 26.6293C22.408 26.8667 22.0946 27 21.7679 27H16.0179C15.6911 27 15.3777 26.8667 15.1466 26.6293C14.9155 26.392 14.7857 26.07 14.7857 25.7344V21.5156C14.7857 21.18 14.6559 20.858 14.4248 20.6207C14.1938 20.3833 13.8804 20.25 13.5536 20.25H9.44643C9.11964 20.25 8.80624 20.3833 8.57517 20.6207C8.3441 20.858 8.21429 21.18 8.21429 21.5156V25.7344C8.21429 26.07 8.08447 26.392 7.8534 26.6293C7.62233 26.8667 7.30893 27 6.98214 27H1.23214C0.905358 27 0.591958 26.8667 0.360886 26.6293C0.129815 26.392 0 26.07 0 25.7344C0 25.3987 0.129815 25.0768 0.360886 24.8394C0.591958 24.6021 0.905358 24.4688 1.23214 24.4688H1.64286ZM6.57143 5.90625C6.57143 5.68247 6.65797 5.46786 6.81202 5.30963C6.96607 5.15139 7.175 5.0625 7.39286 5.0625H9.03571C9.25357 5.0625 9.46251 5.15139 9.61655 5.30963C9.7706 5.46786 9.85714 5.68247 9.85714 5.90625V7.59375C9.85714 7.81753 9.7706 8.03214 9.61655 8.19037C9.46251 8.34861 9.25357 8.4375 9.03571 8.4375H7.39286C7.175 8.4375 6.96607 8.34861 6.81202 8.19037C6.65797 8.03214 6.57143 7.81753 6.57143 7.59375V5.90625ZM7.39286 11.8125C7.175 11.8125 6.96607 11.9014 6.81202 12.0596C6.65797 12.2179 6.57143 12.4325 6.57143 12.6562V14.3438C6.57143 14.5675 6.65797 14.7821 6.81202 14.9404C6.96607 15.0986 7.175 15.1875 7.39286 15.1875H9.03571C9.25357 15.1875 9.46251 15.0986 9.61655 14.9404C9.7706 14.7821 9.85714 14.5675 9.85714 14.3438V12.6562C9.85714 12.4325 9.7706 12.2179 9.61655 12.0596C9.46251 11.9014 9.25357 11.8125 9.03571 11.8125H7.39286ZM13.1429 5.90625C13.1429 5.68247 13.2294 5.46786 13.3834 5.30963C13.5375 5.15139 13.7464 5.0625 13.9643 5.0625H15.6071C15.825 5.0625 16.0339 5.15139 16.188 5.30963C16.342 5.46786 16.4286 5.68247 16.4286 5.90625V7.59375C16.4286 7.81753 16.342 8.03214 16.188 8.19037C16.0339 8.34861 15.825 8.4375 15.6071 8.4375H13.9643C13.7464 8.4375 13.5375 8.34861 13.3834 8.19037C13.2294 8.03214 13.1429 7.81753 13.1429 7.59375V5.90625ZM13.9643 11.8125C13.7464 11.8125 13.5375 11.9014 13.3834 12.0596C13.2294 12.2179 13.1429 12.4325 13.1429 12.6562V14.3438C13.1429 14.5675 13.2294 14.7821 13.3834 14.9404C13.5375 15.0986 13.7464 15.1875 13.9643 15.1875H15.6071C15.825 15.1875 16.0339 15.0986 16.188 14.9404C16.342 14.7821 16.4286 14.5675 16.4286 14.3438V12.6562C16.4286 12.4325 16.342 12.2179 16.188 12.0596C16.0339 11.9014 15.825 11.8125 15.6071 11.8125H13.9643Z" fill="white"/>
</svg>
