<svg width="232" height="152" viewBox="0 0 232 152" fill="none" xmlns="http://www.w3.org/2000/svg">
<path d="M227.513 35.6948L223.9 53.1949L221.574 50.9257L217.617 53.7499L214.593 49.9932L207.812 54.9241L202.017 45.2321L195.553 49.0191L192.989 45.4851L184.781 50.1102L182.311 44.8205L188.066 16.9526L218.912 23.3221L227.513 35.6948Z" fill="#EBEBEB"/>
<path d="M218.912 23.3221L227.513 35.6948L216.813 33.4861L218.912 23.3221Z" fill="#DBDBDB"/>
<path d="M223.13 56.6911L217.833 82.3655L176.282 73.7872L181.541 48.3206L184.011 53.6064L192.223 48.9813L194.782 52.5153L201.25 48.7321L207.042 58.4242L213.827 53.4932L216.847 57.2462L220.808 54.4258L223.13 56.6911Z" fill="#EBEBEB"/>
<path d="M163.66 53.682L121.316 56.3023L117.952 1.94823L149.396 0L160.938 9.6845L163.66 53.682Z" fill="#EBEBEB"/>
<path d="M149.396 0L160.938 9.6845L150.034 10.3603L149.396 0Z" fill="#DBDBDB"/>
<path d="M137.672 36.5746L137.506 35.3475C137.079 32.8065 137.774 29.9634 139.983 26.992C141.976 24.3491 143.056 22.4612 142.935 20.3167C142.799 17.9003 141.195 16.3749 138.208 16.4957C136.501 16.5844 134.862 17.1901 133.508 18.2325L132.205 15.314C133.715 14.0869 136.358 13.1807 138.869 13.0486C144.317 12.7465 146.968 15.9709 147.175 19.5691C147.357 22.7897 145.688 25.2099 143.566 28.0379C141.618 30.6166 140.98 32.7423 141.255 35.1474L141.372 36.3782L137.672 36.5746ZM137 43.2612C136.902 41.5093 138.016 40.2105 139.673 40.1199C141.331 40.0293 142.539 41.1922 142.637 42.9478C142.728 44.6054 141.712 45.9419 139.96 46.0401C138.288 46.1345 137.079 44.9187 136.985 43.2612H137Z" fill="#DBDBDB"/>
<path d="M31.758 27.328L27.4991 25.3987L26.9063 26.7013C26.8188 26.8874 26.6822 27.0462 26.5113 27.1606C26.3403 27.2751 26.1414 27.3408 25.936 27.3507C25.7019 27.3584 25.4686 27.3811 25.2375 27.4186C25.0346 27.4488 24.8273 27.4232 24.6378 27.3448C24.4483 27.2663 24.2837 27.1379 24.1614 26.9731L23.327 25.8065L19.525 28.5325L20.3594 29.6991C20.4754 29.8675 20.5437 30.0642 20.557 30.2683C20.5703 30.4724 20.5281 30.6762 20.4349 30.8583C20.3272 31.0659 20.2302 31.2789 20.1442 31.4963C20.0694 31.6881 19.9437 31.8559 19.7807 31.9816C19.6178 32.1073 19.4236 32.1863 19.2191 32.2099L17.7957 32.3496L18.2526 37.005L19.6835 36.8615C19.8888 36.8451 20.0946 36.885 20.2788 36.9768C20.4631 37.0686 20.6189 37.2089 20.7294 37.3826C20.7898 37.4807 20.854 37.5751 20.9219 37.6695C20.9899 37.7639 21.0579 37.8545 21.1296 37.9451C21.2599 38.1037 21.3437 38.2952 21.3717 38.4985C21.3997 38.7018 21.3708 38.9088 21.2882 39.0967L20.6916 40.4106L24.9543 42.3437L25.5471 41.0336C25.6354 40.8476 25.7728 40.6892 25.9445 40.5754C26.1161 40.4617 26.3155 40.3969 26.5212 40.388C26.7526 40.3784 26.9833 40.3557 27.2122 40.32C27.415 40.2899 27.6223 40.3154 27.8118 40.3939C28.0013 40.4723 28.166 40.6008 28.2882 40.7655L29.1226 41.9322L32.9285 39.2062L32.094 38.0395C31.9744 37.8727 31.9039 37.6756 31.8906 37.4707C31.8772 37.2659 31.9216 37.0614 32.0185 36.8804C32.1237 36.6739 32.2182 36.4622 32.3017 36.2461C32.3743 36.0529 32.4993 35.8838 32.6627 35.7577C32.8262 35.6317 33.0215 35.5537 33.2267 35.5325L34.6577 35.389L34.1971 30.7337L32.7661 30.8734C32.5622 30.8913 32.3573 30.8524 32.174 30.7611C31.9908 30.6699 31.8363 30.5297 31.7278 30.3561C31.6636 30.2579 31.5994 30.1635 31.5315 30.0691C31.4635 29.9748 31.3956 29.8804 31.3238 29.7935C31.1944 29.633 31.1112 29.4403 31.0833 29.236C31.0554 29.0318 31.0837 28.8237 31.1652 28.6344L31.758 27.328ZM29.3416 31.636C29.7831 32.2522 30.032 32.9854 30.0568 33.743C30.0816 34.5006 29.8811 35.2485 29.4808 35.8922C29.0805 36.5359 28.4983 37.0464 27.8078 37.3591C27.1173 37.6719 26.3496 37.7728 25.6018 37.6493C24.8539 37.5257 24.1595 37.1831 23.6063 36.6648C23.0532 36.1465 22.6662 35.4759 22.4942 34.7376C22.3223 33.9994 22.3731 33.2267 22.6403 32.5174C22.9075 31.808 23.379 31.1939 23.9953 30.7525C24.8215 30.1609 25.8488 29.9216 26.8514 30.0873C27.854 30.253 28.7497 30.81 29.3416 31.636Z" fill="#EBEBEB"/>
<path d="M224.278 89.0975L221.438 90.7361L221.941 91.6045C222.016 91.7291 222.053 91.8727 222.048 92.018C222.044 92.1634 221.997 92.3043 221.914 92.4238C221.827 92.5597 221.744 92.6994 221.669 92.8467C221.607 92.9769 221.509 93.0867 221.386 93.163C221.264 93.2392 221.122 93.2789 220.978 93.2771H219.981V96.5581H220.985C221.13 96.5564 221.271 96.596 221.394 96.6723C221.516 96.7486 221.614 96.8583 221.676 96.9885C221.752 97.1358 221.835 97.2755 221.922 97.4114C222.005 97.531 222.051 97.6718 222.056 97.8172C222.06 97.9625 222.023 98.1061 221.948 98.2307L221.446 99.0991L224.285 100.738L224.791 99.8656C224.864 99.7419 224.971 99.641 225.098 99.5744C225.225 99.5077 225.369 99.4778 225.512 99.488H225.996C226.139 99.4782 226.282 99.5083 226.41 99.5749C226.537 99.6416 226.643 99.7422 226.717 99.8656L227.223 100.742L230.058 99.1029L229.556 98.2307C229.485 98.1055 229.45 97.9628 229.455 97.8187C229.46 97.6746 229.506 97.5348 229.586 97.4152C229.673 97.2793 229.756 97.1358 229.832 96.9923C229.894 96.8621 229.992 96.7523 230.114 96.676C230.237 96.5998 230.378 96.5602 230.523 96.5619H231.527V93.2809H230.515C230.371 93.2826 230.229 93.243 230.107 93.1667C229.984 93.0905 229.886 92.9807 229.824 92.8505C229.749 92.707 229.666 92.5635 229.579 92.4276C229.498 92.308 229.453 92.1682 229.447 92.0241C229.442 91.88 229.477 91.7373 229.548 91.612L230.051 90.7399L227.215 89.1013L226.709 89.9621C226.636 90.0858 226.53 90.1866 226.402 90.2533C226.275 90.32 226.131 90.3499 225.988 90.3397H225.746H225.505C225.361 90.3493 225.217 90.3192 225.089 90.2526C224.961 90.186 224.854 90.0855 224.78 89.9621L224.278 89.0975ZM225.746 92.2313C226.278 92.2305 226.799 92.3876 227.241 92.6827C227.684 92.9778 228.029 93.3976 228.233 93.889C228.437 94.3804 228.491 94.9212 228.387 95.443C228.283 95.9648 228.027 96.4442 227.651 96.8204C227.275 97.1966 226.796 97.4527 226.274 97.5563C225.752 97.6599 225.211 97.6063 224.72 97.4024C224.228 97.1985 223.809 96.8533 223.513 96.4107C223.218 95.968 223.061 95.4477 223.062 94.9157C223.061 94.5629 223.131 94.2134 223.265 93.8873C223.4 93.5611 223.598 93.2648 223.847 93.0151C224.096 92.7654 224.392 92.5673 224.718 92.4322C225.044 92.297 225.394 92.2275 225.746 92.2275V92.2313Z" fill="#EBEBEB"/>
<path d="M40.374 13.3771L37.7726 15.3706L38.3729 16.1673C38.4624 16.2808 38.5175 16.4176 38.5316 16.5615C38.5456 16.7054 38.5181 16.8503 38.4522 16.979C38.3799 17.126 38.3169 17.2773 38.2634 17.4321C38.2169 17.5685 38.1332 17.6891 38.0218 17.7805C37.9104 17.8719 37.7757 17.9304 37.6329 17.9494L36.6361 18.0777L37.059 21.3285L38.0558 21.2002C38.2008 21.1799 38.3487 21.2011 38.4823 21.2612C38.6159 21.3214 38.7298 21.418 38.8109 21.54C38.9018 21.6713 39.0001 21.7974 39.1054 21.9175C39.2026 22.0245 39.2672 22.1572 39.2913 22.2997C39.3154 22.4423 39.298 22.5888 39.2413 22.7218L38.8637 23.6506L41.8842 24.9078L42.2618 23.979C42.318 23.8458 42.4104 23.731 42.5285 23.6475C42.6466 23.5641 42.7857 23.5155 42.9301 23.5071L43.1717 23.4807L43.4096 23.4429C43.5493 23.4166 43.6936 23.429 43.8267 23.479C43.9599 23.5289 44.0768 23.6144 44.1647 23.7261L44.7802 24.5303L47.3816 22.5367L46.7737 21.7401C46.6859 21.625 46.632 21.4877 46.6179 21.3436C46.6039 21.1995 46.6304 21.0544 46.6944 20.9246C46.766 20.7786 46.829 20.6285 46.8832 20.4753C46.9297 20.3389 47.0134 20.2182 47.1248 20.1268C47.2362 20.0355 47.3709 19.977 47.5137 19.958L48.5105 19.8296L48.0876 16.5788L47.0908 16.7072C46.9461 16.7278 46.7985 16.7072 46.665 16.6478C46.5314 16.5883 46.4173 16.4925 46.3357 16.3711C46.2413 16.2352 46.1432 16.1068 46.0374 15.9936C45.9495 15.8843 45.8926 15.7534 45.8726 15.6145C45.8527 15.4757 45.8705 15.3341 45.9242 15.2045L46.3017 14.2757L43.2812 13.0184L42.9037 13.9472C42.8468 14.0799 42.7542 14.1943 42.6362 14.2776C42.5182 14.3609 42.3795 14.4099 42.2354 14.4191L41.9937 14.4418L41.771 14.4493C41.6312 14.4757 41.487 14.4632 41.3538 14.4133C41.2207 14.3633 41.1038 14.2779 41.0158 14.1662L40.374 13.3771ZM42.2354 16.2956C42.7613 16.228 43.2955 16.3177 43.7705 16.5533C44.2456 16.7889 44.6402 17.16 44.9046 17.6196C45.169 18.0793 45.2914 18.6069 45.2562 19.136C45.2211 19.6651 45.0301 20.172 44.7072 20.5926C44.3844 21.0133 43.9442 21.3289 43.4421 21.4997C42.9401 21.6704 42.3988 21.6887 41.8864 21.5521C41.374 21.4156 40.9135 21.1304 40.5631 20.7324C40.2126 20.3345 39.9878 19.8417 39.9171 19.3161C39.87 18.9654 39.8926 18.6089 39.9837 18.2669C40.0748 17.925 40.2326 17.6045 40.4481 17.3238C40.6635 17.043 40.9324 16.8077 41.2391 16.6312C41.5458 16.4548 41.8844 16.3407 42.2354 16.2956Z" fill="#EBEBEB"/>
<path d="M20.937 98.563C21.0789 94.9131 21.0285 91.2582 20.786 87.6136C20.2458 80.0877 19.098 72.6179 17.354 65.2769C16.3949 61.1464 15.2169 57.0838 13.9861 53.025C13.9483 52.9004 13.752 52.9344 13.786 53.0628C17.588 67.3724 20.7067 82.1352 20.4915 97.0112C20.4311 101.164 19.9478 105.261 19.5552 109.399C19.5552 109.509 19.7251 109.554 19.7515 109.441C20.533 105.888 20.7898 102.18 20.937 98.563Z" fill="#EBEBEB"/>
<path d="M13.786 53.0515C13.786 53.0515 8.0319 67.6632 9.31939 71.0839C10.6069 74.5046 13.2649 75.2371 13.2649 75.2371C13.2649 75.2371 9.74227 80.2662 12.204 84.982C14.6657 89.6978 20.1328 89.475 20.5104 94.8213C20.4991 94.8477 20.8011 72.4922 13.786 53.0515Z" fill="#EBEBEB"/>
<path d="M19.8723 85.6163C19.8816 85.592 19.8816 85.5651 19.8723 85.5408C19.1171 75.5652 17.2452 65.7058 14.2919 56.1475C14.2919 56.121 14.2353 56.1286 14.2428 56.1475C15.3831 60.4265 16.3899 64.7232 17.2633 69.0375C16.4897 68.3047 15.5447 67.7776 14.5147 67.5046C14.5147 67.5046 14.4845 67.5272 14.5147 67.5348C15.5967 67.9313 16.5697 68.5782 17.3539 69.4226C17.5201 70.2721 17.6862 71.1179 17.841 71.9674C16.5535 70.5289 14.7714 69.8153 12.9855 69.1357C12.9815 69.1374 12.978 69.1403 12.9756 69.144C12.9732 69.1477 12.9719 69.152 12.9719 69.1564C12.9719 69.1608 12.9732 69.1652 12.9756 69.1688C12.978 69.1725 12.9815 69.1754 12.9855 69.1772C14.8469 69.9323 16.697 70.9064 17.958 72.5111C18.396 74.935 18.7811 77.3678 19.1134 79.8094C18.1838 78.8355 16.9916 78.1521 15.6813 77.8423C15.6398 77.8423 15.6171 77.8914 15.6587 77.9027C17.0046 78.2991 18.2062 79.0783 19.1172 80.1454H19.1398C19.2531 81.0012 19.3613 81.8608 19.4645 82.7242C18.7454 82.1156 17.9334 81.6261 17.0594 81.2743C17.0368 81.2743 17.0217 81.3008 17.0594 81.3083C17.9513 81.6947 18.768 82.2353 19.4721 82.9054C19.4721 82.9054 19.4909 82.9054 19.5023 82.9054C19.5967 83.7247 19.6911 84.544 19.7741 85.3633C18.4776 83.796 16.795 82.5936 14.8922 81.8747C14.8842 81.8747 14.8765 81.8778 14.8709 81.8835C14.8652 81.8892 14.862 81.8969 14.862 81.9049C14.862 81.9129 14.8652 81.9206 14.8709 81.9262C14.8765 81.9319 14.8842 81.9351 14.8922 81.9351C16.7711 82.7632 18.4215 84.0341 19.7024 85.639C19.7165 85.6566 19.7355 85.6696 19.757 85.6763C19.7785 85.683 19.8016 85.6832 19.8232 85.6767C19.9478 86.934 20.0611 88.1913 20.1517 89.4524C20.1517 89.4712 20.1819 89.4712 20.1819 89.4524C20.0837 88.1863 19.9805 86.9076 19.8723 85.6163Z" fill="white"/>
<path d="M15.2472 66.0661C14.2051 65.4176 13.0146 65.0459 11.7887 64.9863C11.7827 64.9863 11.7769 64.9886 11.7727 64.9929C11.7684 64.9971 11.766 65.0029 11.766 65.0089C11.766 65.0149 11.7684 65.0207 11.7727 65.0249C11.7769 65.0292 11.7827 65.0316 11.7887 65.0316C12.974 65.2563 14.1242 65.6372 15.2094 66.1643C15.2547 66.1756 15.2887 66.0963 15.2472 66.0661Z" fill="white"/>
<path d="M15.9456 81.5349C15.1447 81.0752 14.2628 80.7739 13.348 80.6476C13.3178 80.6476 13.314 80.6891 13.348 80.6967C14.2413 80.8758 15.1054 81.1783 15.9154 81.5953C15.9494 81.6141 15.9796 81.5537 15.9456 81.5349Z" fill="white"/>
<path d="M36.0698 71.3368C33.6356 73.0195 31.4 74.9726 29.4058 77.1589C27.3492 79.4737 25.7629 82.1667 24.7353 85.0877C22.5484 91.1733 21.3725 97.5759 21.2542 104.041C21.1808 107.622 21.5242 111.199 22.2774 114.7C22.2835 114.725 22.2992 114.748 22.3211 114.762C22.3431 114.776 22.3697 114.781 22.3954 114.776C22.4211 114.772 22.444 114.757 22.4593 114.736C22.4746 114.715 22.4811 114.688 22.4775 114.662C21.5403 108.484 21.576 102.197 22.5832 96.0295C23.5724 89.9885 25.1242 83.4113 28.9678 78.4992C31.0595 75.8223 33.6685 73.7193 36.2472 71.5445C36.3832 71.4237 36.2095 71.2387 36.0698 71.3368Z" fill="#EBEBEB"/>
<path d="M22.0999 99.6844C23.4855 97.4432 25.1138 95.3616 26.9554 93.4772C29.8362 90.5964 32.2601 88.55 32.6377 86.6471C33.0153 84.7442 29.7531 83.3396 29.7531 83.3396C29.7531 83.3396 33.7364 84.057 34.8276 82.3844C35.9187 80.7118 36.4436 71.0235 36.4436 71.0235C36.4436 71.0235 29.1943 76.1999 25.8151 83.4567C22.4359 90.7134 22.0999 99.6844 22.0999 99.6844Z" fill="#EBEBEB"/>
<path d="M33.8421 80.1114C33.3648 80.0404 32.8809 80.0239 32.3998 80.0624C32.3432 80.0624 32.347 80.1605 32.3998 80.1643C32.8756 80.1643 33.3551 80.1416 33.8308 80.1643C33.8362 80.1629 33.8412 80.16 33.8451 80.156C33.849 80.1519 33.8516 80.1469 33.8528 80.1414C33.854 80.1359 33.8536 80.1302 33.8517 80.1249C33.8498 80.1196 33.8465 80.115 33.8421 80.1114Z" fill="white"/>
<path d="M28.6356 89.509C27.8701 89.5246 27.1134 89.6754 26.4004 89.9545C26.4004 89.9545 26.4004 89.9923 26.4004 89.9885C27.1555 89.811 27.8842 89.7393 28.6318 89.6109C28.6416 89.6067 28.6499 89.5997 28.6559 89.5909C28.6619 89.5821 28.6653 89.5718 28.6657 89.5611C28.6661 89.5505 28.6635 89.54 28.6581 89.5307C28.6528 89.5215 28.645 89.514 28.6356 89.509Z" fill="white"/>
<path d="M27.0724 86.2619C26.7546 86.2594 26.4373 86.2872 26.1247 86.345C26.119 86.3471 26.114 86.351 26.1104 86.3561C26.1069 86.3611 26.105 86.3671 26.105 86.3733C26.105 86.3795 26.1069 86.3855 26.1104 86.3906C26.114 86.3956 26.119 86.3995 26.1247 86.4016C26.4412 86.4199 26.7587 86.406 27.0724 86.3601C27.0854 86.3601 27.0979 86.3549 27.1071 86.3457C27.1163 86.3365 27.1215 86.324 27.1215 86.311C27.1215 86.298 27.1163 86.2855 27.1071 86.2763C27.0979 86.2671 27.0854 86.2619 27.0724 86.2619Z" fill="white"/>
<path d="M0.846864 81.6142C3.20633 82.414 5.46732 83.4793 7.58637 84.7895C9.78508 86.1866 11.6918 87.9971 13.2007 90.1207C16.3757 94.5401 18.8065 99.449 20.3971 104.653C21.2842 107.535 21.8316 110.51 22.0282 113.518C22.0241 113.538 22.0134 113.555 21.9979 113.568C21.9824 113.58 21.9631 113.587 21.9432 113.587C21.9233 113.587 21.904 113.58 21.8886 113.568C21.8731 113.555 21.8624 113.538 21.8583 113.518C21.1918 108.302 19.7114 103.222 17.471 98.4648C15.2698 93.8019 12.4947 88.8407 8.25089 85.7522C5.9402 84.0721 3.34256 82.9696 0.752474 81.8067C0.616551 81.7614 0.710942 81.5688 0.846864 81.6142Z" fill="#EBEBEB"/>
<path d="M18.7056 101.327C17.0653 99.8343 15.2661 98.5264 13.3404 97.4265C10.3426 95.7614 7.90731 94.6665 7.16351 93.2129C6.41971 91.7593 8.73417 89.8715 8.73417 89.8715C8.73417 89.8715 5.67591 91.3817 4.4073 90.2679C3.13868 89.1541 0.473083 81.4518 0.473083 81.4518C0.473083 81.4518 7.5373 83.9626 11.9435 89.0559C16.3496 94.1493 18.7056 101.327 18.7056 101.327Z" fill="#EBEBEB"/>
<path d="M12.8421 94.2361C12.1475 94.1877 11.4502 94.2735 10.7881 94.489C10.7881 94.489 10.7881 94.523 10.7881 94.5193C11.4635 94.4034 12.1459 94.3328 12.8307 94.3078C12.8798 94.3078 12.8911 94.2399 12.8421 94.2361Z" fill="white"/>
<path d="M6.68022 86.1562C6.36339 86.1304 6.04452 86.1481 5.73254 86.2091C5.69856 86.2091 5.70988 86.2695 5.73254 86.2657C6.04591 86.2317 6.35174 86.2431 6.66134 86.2355C6.67096 86.2359 6.68041 86.2329 6.68808 86.2271C6.69575 86.2213 6.70116 86.213 6.70339 86.2036C6.70562 86.1943 6.70453 86.1844 6.7003 86.1758C6.69608 86.1671 6.68898 86.1602 6.68022 86.1562Z" fill="white"/>
<path d="M27.8162 123.256H11.8717L14.1447 106.601L14.7261 102.331H24.9619L25.5433 106.601L27.8162 123.256Z" fill="#DBDBDB"/>
<path d="M25.5433 106.601H14.1447L14.7261 102.331H24.9618L25.5433 106.601Z" fill="#C7C7C7"/>
<path d="M26.423 100.851H13.2612V104.468H26.423V100.851Z" fill="#DBDBDB"/>
<path d="M1.73413 123.256L30.4327 123.165L59.1313 123.131L116.529 123.067L173.926 123.131L202.624 123.165L231.323 123.256L202.624 123.35L173.926 123.38L116.529 123.444L59.1313 123.38L30.4327 123.346L1.73413 123.256Z" fill="#263238"/>
<path d="M117.284 151.395C177.075 151.395 225.546 146.084 225.546 139.532C225.546 132.981 177.075 127.669 117.284 127.669C57.4919 127.669 9.02112 132.981 9.02112 139.532C9.02112 146.084 57.4919 151.395 117.284 151.395Z" fill="#EBEBEB"/>
<path d="M92.0813 137.569C91.2016 137.867 65.9766 137.947 65.01 137.35C64.6325 137.124 64.4173 133.45 64.2549 129.002C64.2209 128.043 64.1945 127.05 64.1718 126.046L62.1594 112.589L79.0252 112.48L80.6147 125.94L80.5505 128.9C80.5505 128.9 90.2237 133.186 91.2129 133.963C92.2022 134.741 92.9611 137.271 92.0813 137.569Z" fill="#EB9481"/>
<path d="M92.0813 137.569C91.2016 137.867 65.9765 137.947 65.01 137.35C64.5645 137.071 64.3228 131.706 64.1869 126.046L80.5958 125.94L80.5316 128.9C80.5316 128.9 90.2048 133.186 91.194 133.963C92.1832 134.741 92.961 137.271 92.0813 137.569Z" fill="white"/>
<path d="M92.0813 137.569C91.2016 137.867 65.9766 137.947 65.01 137.35C64.6324 137.124 64.4172 133.45 64.2549 129.002L80.5165 128.9C80.5165 128.9 90.1897 133.186 91.1789 133.963C92.1682 134.741 92.961 137.271 92.0813 137.569Z" fill="#A6A6A6"/>
<path d="M91.7151 136.561C87.4864 136.47 70.4205 136.512 66.2333 136.746C66.1993 136.746 66.1993 136.769 66.2333 136.772C70.4243 136.95 87.4901 136.772 91.7151 136.629C91.8057 136.625 91.8057 136.561 91.7151 136.561Z" fill="#263238"/>
<path d="M89.5667 133.061C89.0965 133.05 88.6292 133.138 88.1944 133.317C87.7596 133.496 87.3668 133.764 87.0408 134.103C86.4468 134.708 86.111 135.52 86.1045 136.368C86.1045 136.395 86.1498 136.395 86.1536 136.368C86.294 135.533 86.7007 134.766 87.3131 134.18C87.9256 133.595 88.7108 133.224 89.5516 133.121C89.5596 133.123 89.5681 133.122 89.5752 133.118C89.5823 133.114 89.5874 133.107 89.5894 133.099C89.5914 133.091 89.5901 133.082 89.5859 133.075C89.5816 133.068 89.5748 133.063 89.5667 133.061Z" fill="#263238"/>
<path d="M82.1703 129.316C80.4788 129.297 78.5193 129.901 77.4696 131.29C77.4319 131.343 77.5074 131.4 77.5565 131.373C79.0343 130.593 80.5911 129.973 82.2005 129.523C82.2254 129.516 82.2469 129.501 82.261 129.479C82.2752 129.458 82.2809 129.432 82.2772 129.406C82.2735 129.38 82.2606 129.357 82.2409 129.341C82.2212 129.324 82.1961 129.315 82.1703 129.316Z" fill="#263238"/>
<path d="M83.4842 129.818C81.7889 129.818 79.8294 130.407 78.7835 131.792C78.742 131.849 78.8175 131.906 78.8704 131.879C80.3461 131.096 81.9018 130.475 83.5106 130.025C83.5352 130.019 83.5565 130.003 83.5706 129.982C83.5848 129.961 83.5908 129.935 83.5875 129.91C83.5843 129.885 83.5721 129.862 83.5531 129.845C83.5341 129.828 83.5097 129.818 83.4842 129.818Z" fill="#263238"/>
<path d="M84.7905 130.324C83.099 130.324 81.1395 130.909 80.0899 132.298C80.0521 132.351 80.1276 132.408 80.1767 132.381C81.6545 131.601 83.2113 130.981 84.8207 130.531C84.8456 130.524 84.8672 130.509 84.8813 130.487C84.8954 130.466 84.9012 130.44 84.8975 130.414C84.8937 130.389 84.8808 130.365 84.8611 130.349C84.8414 130.332 84.8163 130.323 84.7905 130.324Z" fill="#263238"/>
<path d="M86.1007 130.83C84.4054 130.811 82.4459 131.415 81.4 132.804C81.3585 132.857 81.4378 132.914 81.4868 132.887C82.9644 132.107 84.5213 131.486 86.1309 131.037C86.1558 131.03 86.1773 131.015 86.1914 130.993C86.2055 130.972 86.2113 130.946 86.2076 130.92C86.2039 130.895 86.1909 130.871 86.1713 130.855C86.1516 130.838 86.1265 130.829 86.1007 130.83Z" fill="#263238"/>
<path d="M67.2981 132.725C65.4102 132.725 65.4102 135.689 67.2981 135.677C69.1859 135.666 69.201 132.714 67.2981 132.725Z" fill="#263238"/>
<path d="M83.9864 124.792C83.1293 124.083 82.0495 124.792 81.5247 125.521C80.651 126.809 80.1303 128.303 80.0144 129.855C80.0144 129.889 80.0408 129.905 80.0673 129.905C80.074 129.936 80.0882 129.966 80.1089 129.992C80.1295 130.017 80.156 130.037 80.1859 130.05C80.2159 130.063 80.2485 130.068 80.2811 130.066C80.3137 130.064 80.3452 130.054 80.3731 130.037C81.5737 129.202 82.9632 128.455 83.8731 127.273C84.3904 126.586 84.8132 125.453 83.9864 124.792ZM81.9249 128.394C81.3434 128.821 80.7431 129.217 80.1768 129.667C80.4788 128.821 80.7393 127.968 81.1244 127.152C81.3024 126.761 81.5067 126.383 81.7361 126.019C82.1137 125.457 83.7598 124.037 83.9335 125.876C84.0317 126.884 82.6158 127.888 81.9249 128.394Z" fill="#263238"/>
<path d="M75.8008 130.497C77.2733 130.716 78.7949 130.293 80.2409 130.063C80.2723 130.055 80.3014 130.04 80.3257 130.018C80.3501 129.997 80.3691 129.97 80.3812 129.94C80.3933 129.91 80.3982 129.877 80.3955 129.845C80.3928 129.812 80.3825 129.781 80.3655 129.754C80.371 129.749 80.3755 129.744 80.3785 129.738C80.3816 129.731 80.3832 129.725 80.3832 129.718C80.3832 129.711 80.3816 129.704 80.3785 129.698C80.3755 129.691 80.371 129.686 80.3655 129.682C79.2036 128.646 77.7895 127.933 76.2652 127.617C75.3741 127.447 74.1131 127.692 73.9998 128.798C73.8639 129.84 74.9399 130.361 75.8008 130.497ZM74.7738 129.538C73.6411 128.088 75.8045 127.964 76.454 128.115C76.8753 128.22 77.289 128.354 77.6924 128.515C78.5182 128.858 79.3259 129.242 80.1126 129.667C79.3952 129.738 78.6891 129.867 77.9756 129.965C77.1223 130.078 75.4081 130.335 74.7738 129.538Z" fill="#263238"/>
<path d="M37.361 50.3934C37.361 50.3934 56.9452 83.7097 57.4701 86.0505C58.2743 89.645 62.537 125.14 62.537 125.14L82.9254 124.762C82.9254 124.762 79.4141 93.4659 76.0877 83.1546C73.694 75.728 56.4091 51.0957 56.4091 51.0957L37.361 50.3934Z" fill="#37474F"/>
<path d="M81.0716 121.651C78.1455 121.628 67.7738 121.511 63.8773 121.874C63.8471 121.874 63.8509 121.927 63.8773 121.93C65.2177 122.123 78.1417 121.825 81.0678 121.73C81.0739 121.733 81.0805 121.733 81.0869 121.732C81.0934 121.732 81.0996 121.729 81.105 121.726C81.1104 121.722 81.1149 121.717 81.1181 121.712C81.1213 121.706 81.1231 121.7 81.1234 121.693C81.1237 121.687 81.1225 121.68 81.1198 121.674C81.1172 121.668 81.1132 121.663 81.1081 121.659C81.1031 121.655 81.0972 121.652 81.0908 121.651C81.0845 121.649 81.0779 121.649 81.0716 121.651Z" fill="#263238"/>
<path d="M40.7025 53.4517C41.9862 55.4641 43.3454 57.435 44.6518 59.4323C45.9581 61.4296 47.2721 63.4269 48.5671 65.4204C51.1496 69.4478 53.6667 73.5016 56.1184 77.5818C57.3149 79.4731 58.3384 81.4684 59.1766 83.5435C59.9418 85.6191 60.5168 87.7598 60.8946 89.9394C61.2948 92.1255 61.5591 94.3343 61.8045 96.543C62.0562 98.8915 62.3192 101.241 62.5936 103.592C63.1297 108.402 63.6671 113.212 64.2058 118.023C64.27 118.612 64.3342 119.201 64.3946 119.793C64.3946 119.88 64.2473 119.895 64.236 119.793C63.6357 115.017 63.1373 110.222 62.5936 105.446C62.3217 103.062 62.0512 100.68 61.7818 98.2987C61.5289 96.0824 61.2872 93.8623 60.9436 91.6611C60.6284 89.4884 60.1487 87.3427 59.5089 85.2425C58.8039 83.0679 57.8592 80.9785 56.6923 79.0127C54.3325 74.9388 51.833 70.9366 49.3336 66.9307C46.8341 62.9248 44.2667 58.8848 41.6313 54.928C41.3066 54.4409 40.9781 53.9538 40.6383 53.4743C40.6118 53.4479 40.6798 53.4139 40.7025 53.4517Z" fill="#263238"/>
<path d="M43.7796 139.532C42.8508 139.476 18.8604 129.757 18.1959 128.836C18.1663 128.782 18.1532 128.72 18.1581 128.659C18.1581 127.832 19.8232 124.947 21.2126 121.156C21.2995 120.915 21.9187 119.79 22.7757 118.276C25.1582 114.126 29.3114 106.979 29.3114 106.979L44.9916 113.209L37.4856 124.441L36.3189 127.16C36.3189 127.16 43.6777 134.768 44.2969 135.844C44.9161 136.92 44.7046 139.585 43.7796 139.532Z" fill="#EB9481"/>
<path d="M43.7796 139.532C42.8508 139.476 18.8604 129.757 18.1959 128.836C18.1663 128.782 18.1532 128.72 18.1581 128.659C18.1581 127.832 19.8232 124.947 21.2126 121.156C21.2995 120.915 21.9187 119.79 22.7757 118.276L37.5007 124.441L36.334 127.16C36.334 127.16 43.6928 134.768 44.312 135.844C44.9312 136.92 44.7046 139.585 43.7796 139.532Z" fill="white"/>
<path d="M43.7796 139.532C42.8508 139.476 18.8604 129.757 18.1959 128.836C17.9391 128.485 19.0114 125.211 21.2164 121.156L36.3189 127.163C36.3189 127.163 43.6777 134.764 44.3006 135.847C44.9236 136.931 44.7046 139.585 43.7796 139.532Z" fill="#A6A6A6"/>
<path d="M43.8174 138.46C39.9322 136.791 24.0972 130.426 20.129 129.074C20.0951 129.074 20.0875 129.074 20.129 129.097C23.9462 130.833 39.8303 137.071 43.8023 138.536C43.8778 138.555 43.9004 138.494 43.8174 138.46Z" fill="#263238"/>
<path d="M43.1378 134.409C42.707 134.22 42.2415 134.122 41.771 134.122C41.3004 134.122 40.835 134.22 40.4042 134.409C39.6296 134.748 39.0156 135.373 38.6901 136.153C38.6901 136.176 38.724 136.195 38.7354 136.172C39.1805 135.448 39.8482 134.888 40.6385 134.576C41.4288 134.263 42.2991 134.215 43.1189 134.439C43.1252 134.437 43.1307 134.433 43.1342 134.428C43.1377 134.422 43.1389 134.415 43.1378 134.409Z" fill="#263238"/>
<path d="M37.6895 128.164C36.1301 127.511 34.0838 127.337 32.5924 128.232C32.5357 128.266 32.5924 128.345 32.6415 128.341C34.304 128.173 35.9797 128.182 37.6404 128.368C37.666 128.371 37.6916 128.364 37.7127 128.349C37.7337 128.334 37.7486 128.312 37.7546 128.287C37.7606 128.263 37.7573 128.236 37.7454 128.213C37.7334 128.191 37.7135 128.173 37.6895 128.164Z" fill="#263238"/>
<path d="M38.7127 129.123C37.1533 128.47 35.1069 128.296 33.6156 129.191C33.5589 129.225 33.6156 129.304 33.6647 129.3C35.3271 129.13 37.0031 129.139 38.6636 129.327C38.6892 129.33 38.7148 129.323 38.7359 129.308C38.7569 129.293 38.7718 129.272 38.7778 129.247C38.7838 129.222 38.7805 129.195 38.7685 129.172C38.7566 129.15 38.7367 129.132 38.7127 129.123Z" fill="#263238"/>
<path d="M39.7397 130.082C38.1765 129.429 36.1301 129.255 34.6425 130.15C34.5821 130.184 34.6425 130.263 34.6879 130.259C36.3503 130.089 38.0263 130.098 39.6868 130.286C39.7129 130.29 39.7396 130.285 39.7618 130.27C39.784 130.256 39.8 130.234 39.8066 130.208C39.8132 130.183 39.81 130.155 39.7977 130.132C39.7853 130.109 39.7646 130.091 39.7397 130.082Z" fill="#263238"/>
<path d="M40.7628 131.041C39.1997 130.388 37.1571 130.214 35.6657 131.105C35.6053 131.143 35.6657 131.222 35.711 131.218C37.3735 131.048 39.0494 131.057 40.71 131.245C40.7361 131.249 40.7628 131.244 40.785 131.229C40.8072 131.215 40.8232 131.193 40.8298 131.167C40.8364 131.142 40.8332 131.114 40.8208 131.091C40.8085 131.068 40.7878 131.05 40.7628 131.041Z" fill="#263238"/>
<path d="M22.6209 125.744C20.8577 125.042 19.7628 127.786 21.5335 128.489C23.3043 129.191 24.403 126.446 22.6209 125.744Z" fill="#263238"/>
<path d="M41.0687 124.653C40.5363 123.675 39.279 123.916 38.5126 124.403C37.2215 125.268 36.1799 126.457 35.4921 127.851C35.489 127.857 35.4874 127.863 35.4874 127.87C35.4873 127.877 35.4888 127.884 35.4917 127.89C35.4946 127.896 35.4988 127.902 35.5041 127.906C35.5094 127.91 35.5156 127.913 35.5223 127.915C35.5223 128.039 35.6053 128.187 35.7526 128.156C37.1835 127.828 38.7504 127.658 40.0342 126.903C40.7704 126.465 41.5708 125.578 41.0687 124.653ZM37.8028 127.216C37.1043 127.394 36.402 127.537 35.7111 127.741C36.2826 127.053 36.8887 126.393 37.5271 125.766C37.8414 125.467 38.1757 125.19 38.5277 124.936C39.0751 124.558 41.1442 123.86 40.6156 125.631C40.3249 126.608 38.6372 127.005 37.8028 127.216Z" fill="#263238"/>
<path d="M31.3389 126.869C32.6226 127.624 34.1895 127.802 35.6166 128.134C35.7639 128.168 35.8621 128.02 35.8507 127.892C35.8578 127.891 35.8646 127.889 35.8704 127.885C35.8762 127.881 35.8808 127.875 35.8839 127.869C35.8869 127.862 35.8882 127.855 35.8877 127.848C35.8872 127.841 35.8849 127.834 35.8809 127.828C35.1942 126.432 34.1526 125.24 32.8604 124.373C32.1053 123.882 30.8405 123.637 30.3043 124.611C29.7682 125.585 30.5875 126.427 31.3389 126.869ZM30.7499 125.593C30.225 123.822 32.2903 124.524 32.8378 124.906C33.1893 125.16 33.5224 125.439 33.8345 125.74C34.4718 126.368 35.0766 127.029 35.6469 127.718C34.9559 127.515 34.2536 127.367 33.5552 127.19C32.7094 126.963 31.0368 126.586 30.7499 125.593Z" fill="#263238"/>
<path d="M38.7052 123.814L21.1522 116.728C21.1522 116.728 42.915 84.7291 43.0736 82.3466C43.217 80.2398 33.6571 61.8827 33.2833 56.5326C32.8756 50.7559 35.6544 46.2893 38.7127 43.5142L56.8169 51.2127C56.8169 51.2127 54.9064 54.2672 51.9086 55.97C51.9086 55.97 61.1928 77.1891 60.6642 83.7134C60.1357 90.2377 38.7052 123.814 38.7052 123.814Z" fill="#37474F"/>
<path d="M39.4829 120.477C36.9457 119.386 37.6895 119.661 35.1372 118.589C33.8912 118.068 25.6981 114.659 24.437 114.375C24.4106 114.375 24.3917 114.413 24.4181 114.428C25.5093 115.097 33.7704 118.362 35.0277 118.861C37.5989 119.873 36.8702 119.556 39.4527 120.537C39.4566 120.542 39.4617 120.546 39.4676 120.549C39.4734 120.552 39.4799 120.553 39.4863 120.552C39.4927 120.552 39.4989 120.549 39.5042 120.546C39.5095 120.542 39.5138 120.537 39.5167 120.531C39.5196 120.526 39.5209 120.519 39.5206 120.513C39.5203 120.506 39.5184 120.5 39.515 120.495C39.5117 120.489 39.5069 120.485 39.5013 120.482C39.4957 120.478 39.4894 120.477 39.4829 120.477Z" fill="#263238"/>
<path d="M54.8762 55.5811C52.9913 56.0205 51.1472 56.6192 49.3637 57.3708C49.3566 57.3733 49.3499 57.3771 49.3442 57.3822C49.3385 57.3872 49.3339 57.3933 49.3306 57.4002C49.3272 57.407 49.3253 57.4144 49.3248 57.422C49.3244 57.4296 49.3254 57.4372 49.3279 57.4444C49.3304 57.4516 49.3342 57.4582 49.3393 57.4639C49.3443 57.4696 49.3504 57.4743 49.3573 57.4776C49.3641 57.4809 49.3715 57.4829 49.3791 57.4833C49.3867 57.4838 49.3943 57.4828 49.4015 57.4803C51.2516 56.9404 53.1318 56.4344 54.9517 55.7964C55.0914 55.7473 55.0196 55.5509 54.8762 55.5811Z" fill="#263238"/>
<path d="M52.7203 54.8487C52.5444 55.1616 52.3893 55.4858 52.2559 55.8191C52.1256 56.072 52.0449 56.3475 52.0181 56.6308C52.0181 56.6874 52.0936 56.6988 52.1276 56.6648C52.317 56.4382 52.4699 56.1834 52.5806 55.9097C52.7354 55.6114 52.894 55.3169 53.0413 55.0111C53.1432 54.7883 52.8374 54.6448 52.7203 54.8487Z" fill="#263238"/>
<path d="M52.9468 53.1346C53.0601 52.8552 53.1696 52.5795 53.2866 52.3001C53.4037 52.0207 53.5509 51.7338 53.6642 51.4393C53.6642 51.394 53.7548 51.4393 53.7359 51.4733C53.6227 51.7527 53.5509 52.0472 53.4641 52.3341C53.3773 52.6211 53.2791 52.908 53.1847 53.195C53.0072 53.7273 52.8071 54.2559 52.5617 54.7732C52.8588 54.788 53.1555 54.7364 53.4301 54.6221C53.7106 54.4426 53.9263 54.178 54.0455 53.867C54.2041 53.5574 54.3514 53.2403 54.5137 52.9307C54.7136 52.5959 54.8817 52.2433 55.0159 51.8773C55.0159 51.832 55.1065 51.8773 55.0876 51.9112C54.8414 52.6851 54.5189 53.4326 54.1248 54.1426C53.9549 54.4183 53.8228 54.709 53.5132 54.8147C53.178 54.9084 52.8273 54.9328 52.4824 54.8864C52.4371 54.8864 52.3843 54.8864 52.3994 54.8185C52.554 54.2485 52.7367 53.6865 52.9468 53.1346Z" fill="#263238"/>
<path d="M52.1766 56.661C52.8223 58.024 53.3886 59.3832 53.9889 60.7424C54.5893 62.1017 55.1216 63.4156 55.6615 64.7673C56.7414 67.4933 57.7079 70.2721 58.5575 73.0737C58.9766 74.4631 59.3654 75.8639 59.7128 77.2759C60.0954 78.6835 60.3755 80.117 60.551 81.5651C60.7025 83.0108 60.5743 84.4721 60.1734 85.8693C59.757 87.2504 59.2227 88.5932 58.5763 89.8828C58.1799 90.6983 58.0477 90.5888 58.2365 90.1773C58.7764 89.0069 60.1923 85.4615 60.0904 82.4826C60.0078 81.0564 59.7878 79.6415 59.4334 78.2576C59.1037 76.8304 58.7324 75.4146 58.3196 74.01C57.5154 71.2387 56.5601 68.524 55.5785 65.8131C55.0272 64.3029 54.4458 62.7926 53.8794 61.2824C53.3131 59.7721 52.7468 58.3827 52.1124 56.7138C52.0936 56.6459 52.1578 56.6194 52.1766 56.661Z" fill="#263238"/>
<path d="M38.8524 52.1567C39.1658 52.0396 39.6076 52.2322 39.9247 52.285C40.3355 52.3547 40.7505 52.3964 41.1669 52.4096C41.5789 52.4241 41.9914 52.4103 42.4015 52.3681C42.8145 52.3574 43.2193 52.2501 43.5833 52.0547C44.1805 51.6196 44.6925 51.0782 45.0936 50.4576C45.5714 49.8234 45.9661 49.1306 46.2678 48.3961C46.2678 48.3508 46.3471 48.3961 46.332 48.4263C46.1998 48.8454 46.1016 49.2683 45.9544 49.6798C45.7916 50.0665 45.5971 50.439 45.3729 50.7936C45.0094 51.5072 44.4718 52.1176 43.8098 52.5682C43.0811 52.9835 42.1448 52.9458 41.333 52.9118C40.8622 52.8843 40.394 52.8225 39.9323 52.7268C39.6 52.655 39.0412 52.6022 38.8298 52.3115C38.8198 52.3003 38.8124 52.2872 38.8082 52.2729C38.8039 52.2586 38.8027 52.2435 38.8049 52.2288C38.8071 52.214 38.8124 52.1999 38.8207 52.1874C38.8289 52.175 38.8397 52.1645 38.8524 52.1567Z" fill="#263238"/>
<path d="M26.1625 113.371C29.0471 109.001 31.8788 104.596 34.6577 100.156C37.4365 95.7162 40.1776 91.2421 42.881 86.7339C43.5266 85.6579 44.2704 84.5856 44.6857 83.3925C45.1388 82.0975 44.8821 80.8402 44.4743 79.5716C43.7043 77.2573 42.8043 74.9883 41.7785 72.7754C40.7666 70.544 39.6755 68.3504 38.6032 66.1492C37.5309 63.948 36.4096 61.7732 35.5827 59.4776C34.8276 57.284 34.5217 55.0111 35.1107 52.7381C35.6997 50.4652 36.9683 48.4565 38.2936 46.565C38.641 46.0666 38.9996 45.572 39.3508 45.0547C39.3772 45.0169 39.4338 45.0547 39.4074 45.1C37.9462 47.0709 36.5228 49.1588 35.6658 51.4733C35.2277 52.6141 34.9827 53.8199 34.9408 55.0413C34.9337 56.281 35.1262 57.5138 35.511 58.6923C36.2208 60.9879 37.3421 63.1589 38.388 65.3185C39.4338 67.4782 40.5514 69.7134 41.5822 71.9372C42.6455 74.1754 43.5907 76.4679 44.4139 78.8051C44.765 79.8434 45.169 80.9308 45.1388 82.0446C45.1124 83.2641 44.5309 84.3629 43.9268 85.3898C41.2839 89.8639 38.5768 94.2852 35.8206 98.6801C33.0643 103.075 30.2288 107.47 27.3594 111.819L26.272 113.462C26.2153 113.53 26.1172 113.45 26.1625 113.371Z" fill="#263238"/>
<path d="M57.8212 30.8621C59.4561 34.4489 67.7134 39.3913 71.5796 39.9236C74.3585 40.3012 82.8084 40.4371 85.7043 39.9954C89.1023 39.4743 86.5047 30.3184 84.4999 30.5563C78.9874 31.1981 74.3056 31.9155 72.8331 31.9155C71.0359 31.9155 61.3137 28.7968 60.1432 28.3551C57.2737 27.2866 56.8962 28.827 57.8212 30.8621Z" fill="#EB9481"/>
<path d="M57.8741 31.8173C59.9431 34.8793 66.8185 39.8858 66.8185 39.8858L67.7738 37.7715L70.934 30.779C70.934 30.779 64.6173 28.7968 60.4604 27.8906C59.9712 27.7793 59.4736 27.7086 58.9728 27.6792C56.3185 27.5357 56.0882 29.1743 57.8741 31.8173Z" fill="#CD0606"/>
<path d="M57.8741 31.8173C59.9431 34.8793 66.8185 39.8858 66.8185 39.8858L67.7738 37.7715C65.2101 34.7925 61.2495 30.2806 58.9728 27.6867C56.3185 27.5357 56.0882 29.1743 57.8741 31.8173Z" fill="#263238"/>
<path d="M65.5801 38.4662C66.1049 37.1787 68.4383 31.9948 69.0197 30.9149C69.0575 30.8394 69.1179 30.847 69.0839 30.9149C68.0717 33.4929 66.9197 36.0137 65.633 38.4662C65.6179 38.5115 65.5574 38.4964 65.5801 38.4662Z" fill="#263238"/>
<path d="M83.488 30.6506C86.8407 30.2126 90.9902 29.4613 94.5053 30.9527C94.9001 31.1075 95.2313 31.3908 95.4454 31.7569C97.0312 32.3987 97.2049 33.3389 97.2049 33.3389C98.4999 34.3885 98.5452 35.3777 98.5452 35.3777C98.5452 35.3777 100.403 36.1328 100.12 37.3486C99.8101 38.6927 97.2653 37.3486 95.4152 37.4581C91.1676 37.7224 85.221 39.2817 83.9939 39.4781L83.488 30.6506Z" fill="#EB9481"/>
<path d="M90.7711 34.6075C92.0131 34.5226 93.2595 34.5226 94.5015 34.6075C95.854 34.7772 97.1919 35.0486 98.5036 35.4193C98.5122 35.4223 98.5215 35.4218 98.5297 35.4179C98.5378 35.414 98.5441 35.407 98.5471 35.3985C98.5501 35.39 98.5496 35.3806 98.5457 35.3725C98.5418 35.3644 98.5348 35.3581 98.5263 35.3551C96.0619 34.3882 93.3793 34.1166 90.7711 34.5698C90.7107 34.5622 90.7107 34.6113 90.7711 34.6075Z" fill="#263238"/>
<path d="M89.9821 30.6846C92.0549 30.7903 93.3499 31.1226 95.4341 31.7493V31.7267C93.1385 30.7677 92.1984 30.6771 89.9707 30.594C89.899 30.6242 89.9028 30.6846 89.9821 30.6846Z" fill="#263238"/>
<path d="M90.3181 38.1C89.7782 38.3529 89.9103 38.6361 90.9411 38.874C91.9718 39.1118 96.2572 39.1836 96.1061 40.6787C95.9551 42.1739 89.9103 41.9851 88.2226 41.4565C86.5349 40.9279 83.9939 39.4781 83.9939 39.4781C85.1908 39.278 87.9998 38.5191 90.3181 38.1Z" fill="#EB9481"/>
<path d="M62.3104 36.5784C62.284 37.224 62.2236 37.881 62.133 38.5342C62.133 38.5077 62.133 38.4851 62.1594 38.4624C62.284 38.1226 62.4086 37.7753 62.5596 37.4468C62.5596 37.4468 62.5974 37.4468 62.5936 37.4468C62.521 37.8067 62.4122 38.1584 62.2689 38.4964C62.2009 38.6588 62.1367 38.8174 62.065 38.9759C62.0197 39.2667 61.9668 39.5536 61.9102 39.8406C61.7969 40.3805 61.2872 42.6761 61.1551 43.0649C61.1324 43.1442 61.0342 43.1254 61.0418 43.0347C61.0682 42.6119 61.4949 40.2219 61.5817 39.6782C61.7504 38.6284 61.976 37.5886 62.2576 36.5633C62.2764 36.5444 62.3142 36.5595 62.3104 36.5784Z" fill="#263238"/>
<path d="M58.3838 53.7462C57.3757 54.2634 56.0768 55.0676 50.2246 53.9161C49.847 53.8406 49.4921 53.75 49.1221 53.6405C43.6361 51.9943 37.0401 45.5417 36.6814 45.0849C36.6814 45.0849 45.3993 30.9527 56.5488 26.5087C57.9269 25.9613 60.2074 27.0185 61.4571 28.3361C61.9064 28.8081 62.8843 32.2779 62.5105 35.087C62.1367 37.8961 59.3881 53.2289 58.3838 53.7462Z" fill="#CD0606"/>
<path d="M57.5984 34.9586C57.6405 35.5558 57.5569 36.1552 57.353 36.7181C57.3051 36.1207 57.3889 35.5201 57.5984 34.9586Z" fill="white"/>
<path d="M53.7964 44.5828C53.8204 44.88 53.8103 45.1789 53.7662 45.4738C53.7298 45.7709 53.6576 46.0625 53.551 46.3422C53.525 46.0438 53.5351 45.7434 53.5812 45.4474C53.6198 45.1519 53.692 44.8618 53.7964 44.5828Z" fill="white"/>
<path d="M47.3363 37.3071C47.3788 37.9055 47.2952 38.5062 47.0908 39.0703C47.0434 38.4717 47.1272 37.87 47.3363 37.3071Z" fill="white"/>
<path d="M60.0865 44.0919C60.1107 44.3904 60.1005 44.6906 60.0563 44.9867C60.02 45.2839 59.9477 45.5754 59.8411 45.8551C59.8151 45.5567 59.8253 45.2563 59.8713 44.9603C59.9095 44.6635 59.9817 44.3722 60.0865 44.0919Z" fill="white"/>
<path d="M51.7915 36.0611C52.0886 36.0358 52.3875 36.0447 52.6826 36.0875C52.9798 36.1252 53.2714 36.1987 53.551 36.3065C52.9537 36.3494 52.3542 36.2658 51.7915 36.0611Z" fill="white"/>
<path d="M44.4592 43.0121C45.0564 42.97 45.6558 43.0536 46.2187 43.2575C45.6213 43.3054 45.0207 43.2216 44.4592 43.0121Z" fill="white"/>
<path d="M53.0978 50.5369C53.6951 50.494 54.2946 50.5777 54.8573 50.7823C54.2599 50.8295 53.6595 50.7457 53.0978 50.5369Z" fill="white"/>
<path d="M42.1976 47.8033C42.7948 47.7612 43.3942 47.8448 43.9571 48.0487C43.3597 48.0959 42.7593 48.0121 42.1976 47.8033Z" fill="white"/>
<path d="M57.5418 28.1927C58.139 28.1506 58.7384 28.2342 59.3013 28.4381C58.7041 28.4802 58.1047 28.3966 57.5418 28.1927Z" fill="white"/>
<path d="M55.4086 30.6016C55.2177 30.831 54.9996 31.0364 54.7592 31.2132C54.5252 31.3941 54.272 31.5486 54.004 31.6738C54.1936 31.4459 54.409 31.2406 54.6459 31.0622C54.8821 30.8806 55.1379 30.7261 55.4086 30.6016Z" fill="white"/>
<path d="M43.7834 37.4468C43.5902 37.6742 43.3709 37.8783 43.1302 38.0547C42.8986 38.239 42.6449 38.3937 42.3751 38.5153C42.5693 38.2888 42.7884 38.0849 43.0282 37.9074C43.2604 37.7239 43.5139 37.5692 43.7834 37.4468Z" fill="white"/>
<path d="M58.3007 40.5353C58.1076 40.7639 57.8883 40.9692 57.6475 41.1469C57.4154 41.3305 57.1618 41.4852 56.8924 41.6076C57.0855 41.3789 57.3048 41.1736 57.5456 40.9959C57.779 40.8142 58.0323 40.6597 58.3007 40.5353Z" fill="white"/>
<path d="M48.8993 46.4554C48.7062 46.6841 48.487 46.8894 48.2462 47.0671C48.0136 47.2501 47.7601 47.4047 47.491 47.5277C47.6842 47.2991 47.9034 47.0938 48.1442 46.9161C48.3776 46.7344 48.631 46.5798 48.8993 46.4554Z" fill="white"/>
<path d="M61.9026 32.4478C61.7095 32.6765 61.4903 32.8817 61.2495 33.0595C61.0155 33.2404 60.7622 33.3949 60.4943 33.5201C60.6875 33.2914 60.9067 33.0862 61.1475 32.9084C61.38 32.7254 61.6335 32.5708 61.9026 32.4478Z" fill="white"/>
<path d="M61.7063 39.3082C61.4777 39.115 61.2724 38.8958 61.0947 38.655C60.9109 38.423 60.7562 38.1694 60.634 37.8998C60.8635 38.0907 61.0689 38.3088 61.2457 38.5493C61.4261 38.7849 61.5805 39.0394 61.7063 39.3082Z" fill="white"/>
<path d="M40.7515 44.0353C40.5229 43.8421 40.3176 43.6229 40.1399 43.3821C39.9582 43.1487 39.8036 42.8953 39.6793 42.627C39.9079 42.8201 40.1132 43.0393 40.2909 43.2801C40.4739 43.5126 40.6286 43.7661 40.7515 44.0353Z" fill="white"/>
<path d="M59.1578 49.6572C58.9283 49.4663 58.7229 49.2482 58.5461 49.0078C58.3652 48.7738 58.2107 48.5206 58.0855 48.2526C58.3142 48.4458 58.5194 48.665 58.6972 48.9058C58.8794 49.1375 59.034 49.3897 59.1578 49.6572Z" fill="white"/>
<path d="M49.9339 33.6296C49.7053 33.4378 49.5 33.2199 49.3222 32.9802C49.142 32.7457 48.9876 32.4926 48.8616 32.2251C49.091 32.416 49.2964 32.634 49.4732 32.8745C49.6534 33.109 49.8078 33.3621 49.9339 33.6296Z" fill="white"/>
<path d="M50.0963 52.8589C49.8676 52.6658 49.6623 52.4466 49.4846 52.2057C49.3035 51.9719 49.149 51.7187 49.024 51.4506C49.2534 51.6415 49.4588 51.8596 49.6356 52.1C49.8173 52.3348 49.9718 52.5894 50.0963 52.8589Z" fill="white"/>
<path d="M51.6631 41.5169C51.4366 41.3227 51.2327 41.1036 51.0552 40.8637C50.8709 40.6321 50.7162 40.3785 50.5946 40.1086C50.8221 40.3018 51.0261 40.521 51.2025 40.7618C51.386 40.9939 51.5407 41.2475 51.6631 41.5169Z" fill="white"/>
<path d="M59.4145 32.1005C57.9911 31.8362 56.6545 28.895 56.4846 26.9165C56.4846 26.7806 57.1491 25.7045 57.908 24.3566C58.3687 23.5373 58.8557 22.6123 59.2446 21.7364C59.3239 21.5589 59.7883 22.1592 59.7883 22.1592L60.8002 22.9144L64.1416 25.478C63.3459 26.4328 62.6701 27.4814 62.1292 28.6005C62.0758 28.7217 62.0353 28.8483 62.0084 28.978C62.0069 28.9994 62.0069 29.0208 62.0084 29.0422C61.8007 29.7898 60.7851 32.3534 59.4145 32.1005Z" fill="#EB9481"/>
<path d="M62.0084 28.9969C62.0069 29.0182 62.0069 29.0397 62.0084 29.0611C61.81 29.0029 61.6168 28.9284 61.4307 28.8383C57.7721 27.1242 59.3843 22.2234 59.3843 22.2234L60.8191 22.9332L64.1605 25.4969C63.3648 26.4517 62.689 27.5003 62.1481 28.6193C62.0882 28.7398 62.0414 28.8664 62.0084 28.9969Z" fill="#263238"/>
<path d="M67.9814 15.046C67.9814 15.046 69.6541 16.1069 69.6616 17.9947C69.6692 19.8825 68.9065 21.7288 68.7479 21.7968C68.5893 21.8648 67.9814 15.046 67.9814 15.046Z" fill="#263238"/>
<path d="M59.6826 16.0276C58.6783 18.0098 58.7311 24.2585 59.9846 25.8669C61.8045 28.2002 65.3083 29.0045 67.4264 26.6975C69.4766 24.4624 69.2652 16.3221 67.804 14.8043C65.6783 12.5616 61.1702 13.0939 59.6826 16.0276Z" fill="#EB9481"/>
<path d="M65.0138 21.0303C65.0138 21.0303 64.9798 21.053 64.9836 21.0681C65.0062 21.4947 64.9609 21.9856 64.5796 22.1366C64.5796 22.1366 64.5796 22.163 64.5796 22.1592C65.0515 22.0837 65.1044 21.4306 65.0138 21.0303Z" fill="#263238"/>
<path d="M64.6249 20.5961C63.9377 20.5583 63.9151 21.9327 64.5532 21.9667C65.1912 22.0006 65.1988 20.6263 64.6249 20.5961Z" fill="#263238"/>
<path d="M67.3433 21.0152C67.3433 21.0152 67.3773 21.0152 67.3773 21.053C67.3547 21.4796 67.4037 21.9704 67.7889 22.1177C67.7889 22.1177 67.7889 22.1441 67.7889 22.1403C67.3131 22.0686 67.2565 21.4154 67.3433 21.0152Z" fill="#263238"/>
<path d="M67.7322 20.5772C68.4156 20.5357 68.4496 21.91 67.8153 21.9478C67.181 21.9855 67.1583 20.6112 67.7322 20.5772Z" fill="#263238"/>
<path d="M64.1945 19.5503C64.3749 19.499 64.5526 19.4385 64.7268 19.3691C64.9251 19.3332 65.1058 19.2322 65.2403 19.0821C65.2729 19.0272 65.2866 18.963 65.2791 18.8995C65.2715 18.836 65.2433 18.7768 65.1988 18.731C65.0966 18.6533 64.9756 18.6043 64.8481 18.589C64.7207 18.5738 64.5915 18.5928 64.4739 18.6441C64.2191 18.7124 63.9985 18.8724 63.8546 19.0934C63.8259 19.146 63.8129 19.2058 63.817 19.2655C63.8212 19.3253 63.8424 19.3826 63.8782 19.4307C63.914 19.4788 63.9628 19.5156 64.0188 19.5368C64.0749 19.558 64.1358 19.5627 64.1945 19.5503Z" fill="#263238"/>
<path d="M68.2004 20.1581C68.0167 20.1171 67.8353 20.0667 67.6567 20.0071C67.4578 19.9808 67.2732 19.8891 67.1319 19.7466C67.0955 19.6941 67.078 19.6308 67.0821 19.5671C67.0862 19.5033 67.1117 19.4428 67.1546 19.3954C67.2519 19.3122 67.3699 19.2567 67.4962 19.2348C67.6224 19.2128 67.7522 19.2253 67.8719 19.2708C68.1302 19.3244 68.3591 19.4725 68.5138 19.6862C68.5461 19.7367 68.5631 19.7956 68.5626 19.8557C68.5621 19.9157 68.5441 19.9743 68.5109 20.0243C68.4777 20.0743 68.4307 20.1136 68.3755 20.1373C68.3204 20.1611 68.2596 20.1683 68.2004 20.1581Z" fill="#263238"/>
<path d="M64.0472 25.0665C64.1491 25.1684 64.2473 25.3043 64.4021 25.3194C64.5608 25.3193 64.7178 25.2859 64.8627 25.2213C64.8627 25.2213 64.8892 25.2213 64.8627 25.2439C64.8009 25.3269 64.7176 25.3915 64.6218 25.4307C64.526 25.47 64.4214 25.4824 64.3191 25.4667C64.2328 25.4432 64.1553 25.3948 64.0963 25.3277C64.0372 25.2606 63.9992 25.1777 63.9868 25.0891C63.9838 25.0811 63.9841 25.0722 63.9876 25.0644C63.9912 25.0567 63.9977 25.0506 64.0057 25.0476C64.0137 25.0446 64.0226 25.0449 64.0303 25.0484C64.0381 25.052 64.0442 25.0585 64.0472 25.0665Z" fill="#263238"/>
<path d="M66.5165 23.2466C66.5165 23.2466 66.5354 23.8809 66.5165 24.1792C65.9363 24.1177 65.3504 24.138 64.7759 24.2396C64.64 24.2698 64.6551 24.1603 64.8099 24.0886C65.2726 23.8771 65.7881 23.8087 66.2899 23.8923C66.3201 23.813 66.2409 22.9106 66.2899 22.9144C66.5183 22.9592 66.7394 23.0354 66.9469 23.1409C66.9469 21.8119 66.7355 20.498 66.7543 19.1689C66.7543 19.1236 66.8261 19.1161 66.8336 19.1689C67.102 20.5749 67.2284 22.0042 67.2112 23.4354C67.215 23.5978 66.6297 23.307 66.5165 23.2466Z" fill="#263238"/>
<path d="M65.6669 23.9526C65.5164 24.3485 65.2372 24.6823 64.8741 24.9003C64.3039 25.1306 64.1189 24.6134 64.6928 24.1452C64.9938 23.9931 65.3307 23.9265 65.6669 23.9526Z" fill="#263238"/>
<path d="M65.0742 24.7833C65.0139 24.8324 64.9464 24.8719 64.8741 24.9004C64.3493 25.1118 64.1416 24.6927 64.5645 24.2698C64.8514 24.2925 65.1799 24.3982 65.0742 24.7833Z" fill="#FF99BA"/>
<path d="M59.3956 21.3701C60.0866 21.5816 60.8795 19.505 61.106 18.7272C61.3023 18.0249 61.5289 15.7935 61.5629 15.6387C61.5968 15.4839 64.5834 17.6134 66.3126 17.1074C68.0418 16.6015 69.2161 15.0346 69.2425 14.3059C69.2689 13.5772 67.1055 11.7272 65.2365 11.6328C63.3676 11.5384 60.8342 13.8981 60.8342 13.8981C61.1402 13.5509 61.4179 13.1797 61.6648 12.7881C61.6346 12.705 60.4264 13.1883 60.2036 14.0492C60.2036 14.0492 60.4453 12.9656 60.3547 12.9467C60.264 12.9278 59.3239 13.8528 59.5353 14.5551C59.5353 14.5551 58.448 15.4952 58.3498 16.526C58.2516 17.5567 58.5839 21.1209 59.3956 21.3701Z" fill="#263238"/>
<path d="M67.551 16.7148C67.0367 16.9936 66.4829 17.1923 65.9086 17.3038C65.264 17.3613 64.6153 17.2575 64.0208 17.0017C63.4219 16.7704 62.8657 16.4412 62.3746 16.0276C61.9404 15.6727 61.5515 15.2385 61.0871 14.9214C60.9701 14.8383 60.8379 15.0082 60.9097 15.1139C61.6845 16.2083 62.7913 17.0239 64.0661 17.4397C64.6582 17.6328 65.2902 17.6688 65.9004 17.5444C66.5106 17.42 67.078 17.1393 67.5472 16.7299C67.5472 16.7299 67.5586 16.7148 67.551 16.7148Z" fill="#263238"/>
<path d="M60.1167 21.1851C60.1167 21.1851 59.0445 19.0104 58.0779 19.3615C57.1113 19.7126 57.7003 22.7218 58.6933 23.273C58.815 23.3517 58.9512 23.4051 59.094 23.4298C59.2367 23.4546 59.383 23.4502 59.524 23.4171C59.665 23.384 59.7979 23.3227 59.9147 23.2369C60.0315 23.1512 60.1297 23.0428 60.2036 22.9181L60.1167 21.1851Z" fill="#EB9481"/>
<path d="M58.2705 20.2186C58.2705 20.2186 58.2479 20.2186 58.2705 20.2488C58.9577 20.6565 59.2371 21.3815 59.4032 22.1366C59.3719 22.0567 59.3237 21.9845 59.2617 21.925C59.1998 21.8656 59.1257 21.8203 59.0446 21.7923C58.9634 21.7642 58.8772 21.7542 58.7918 21.7628C58.7063 21.7714 58.6238 21.7985 58.5499 21.8421C58.5273 21.8421 58.5499 21.8836 58.5499 21.8836C58.685 21.8626 58.8232 21.884 58.9456 21.9449C59.068 22.0057 59.1685 22.1031 59.2333 22.2234C59.3414 22.425 59.4274 22.6377 59.49 22.8577C59.5127 22.9295 59.6373 22.9106 59.626 22.8313C59.7883 21.8912 59.2597 20.4678 58.2705 20.2186Z" fill="#263238"/>
<path d="M53.0374 30.896C52.2823 35.1738 56.9188 49.5854 59.8902 52.2775C64.3115 56.2796 72.4857 58.9113 75.4496 59.7683C76.7409 60.1459 80.3126 51.0579 79.0063 50.4576C76.2085 49.1852 67.517 46.4668 66.6901 45.7872C65.8633 45.1075 60.8794 37.9074 58.6594 33.7618C55.6879 28.1814 53.4112 28.7326 53.0374 30.896Z" fill="#EB9481"/>
<path d="M76.8051 49.6572C76.8051 49.6572 80.6638 50.6426 83.1519 51.4015C84.5413 51.8282 86.8596 52.7683 87.7393 53.5461C89.0532 54.7127 93.803 60.4215 92.4437 61.6033C91.2129 62.6756 87.7544 57.25 87.7544 57.25C87.7544 57.25 91.7264 62.415 90.0198 63.4307C88.3132 64.4463 85.1908 57.7974 85.1908 57.7974C85.1908 57.7974 89.1514 63.1966 87.2145 63.963C85.7495 64.5407 82.6082 58.6772 82.6082 58.6772C82.6082 58.6772 85.9836 63.3401 84.496 64.0008C82.8574 64.7333 79.6217 59.5003 79.6217 59.5003C75.5742 60.5461 73.2031 59.387 71.6438 58.3676C71.2775 58.1184 76.8051 49.6572 76.8051 49.6572Z" fill="#EB9481"/>
<path d="M86.4934 55.3735C86.9842 55.9625 87.4826 56.5591 87.9168 57.1896C88.351 57.8201 88.7625 58.4695 89.1363 59.1378C89.6428 60.0022 90.0482 60.9219 90.3445 61.8789C89.6951 60.2176 88.1735 57.9334 87.7393 57.3029C87.3051 56.6723 86.9012 56.0191 86.4707 55.3886C86.4594 55.3735 86.4821 55.3584 86.4934 55.3735Z" fill="#263238"/>
<path d="M84.1864 56.9026C85.0246 57.5672 86.7803 60.0364 87.4561 61.6939C87.4863 61.7619 87.4561 61.7581 87.407 61.6939C86.8785 60.8746 84.7339 57.7031 84.1676 56.914C84.1562 56.9026 84.1751 56.8913 84.1864 56.9026Z" fill="#263238"/>
<path d="M81.9701 57.8692C83.0116 58.9616 83.8344 60.2432 84.3941 61.6448C84.4205 61.7128 84.3677 61.7014 84.3261 61.6448C83.5446 60.3724 82.9405 59.3794 81.9286 57.9032C81.9135 57.8692 81.9475 57.8352 81.9701 57.8692Z" fill="#263238"/>
<path d="M57.251 31.2094C53.8039 26.3351 51.7424 28.1398 52.4333 33.4333C53.0827 38.3831 54.8158 44.2807 54.8158 44.2807L63.4997 40.0671C63.4997 40.0671 59.4447 34.3319 57.251 31.2094Z" fill="#CD0606"/>
<path d="M59.3466 33.1274C59.461 33.4028 59.5434 33.6903 59.592 33.9845C59.645 34.2796 59.664 34.5799 59.6486 34.8793C59.5354 34.6026 59.4543 34.3137 59.407 34.0185C59.3508 33.725 59.3305 33.4258 59.3466 33.1274Z" fill="white"/>
<path d="M54.2004 36.0913C54.7545 35.8659 55.3508 35.7629 55.9485 35.7893C55.673 35.9025 55.3855 35.9836 55.0914 36.0309C54.7979 36.0869 54.4987 36.1072 54.2004 36.0913Z" fill="white"/>
<path d="M54.4231 28.5098C54.1893 29.0616 53.8405 29.5572 53.3999 29.9634C53.6337 29.4117 53.9825 28.9161 54.4231 28.5098Z" fill="white"/>
<path d="M61.7818 38.368C61.6672 38.6442 61.5215 38.9064 61.3476 39.1496C61.1783 39.3959 60.9806 39.6215 60.7586 39.8217C60.9924 39.2699 61.3412 38.7743 61.7818 38.368Z" fill="white"/>
<path d="M55.7408 41.3243C55.464 41.2111 55.2016 41.0653 54.9592 40.8901C54.7128 40.7209 54.4872 40.5232 54.2872 40.3011C54.839 40.535 55.3345 40.8838 55.7408 41.3243Z" fill="white"/>
<path d="M58.3837 32.6782C58.8481 33.3162 59.3276 33.9392 59.8034 34.566C59.6825 34.2488 59.5768 33.9279 59.4862 33.6032H59.5089C59.6033 33.8524 59.7128 34.0978 59.8034 34.3583L59.9393 34.7359C59.951 34.7617 59.9611 34.7881 59.9695 34.8152C60.3471 35.3022 60.7246 35.7893 61.072 36.2877C61.4986 36.8842 61.9102 37.4883 62.3255 38.0924C62.7408 38.6965 63.1599 39.4479 63.6092 40.0558C63.6507 40.1086 62.8541 40.4333 62.7672 40.4748C62.6804 40.5164 62.6351 40.4446 62.7182 40.4182C62.8012 40.3918 63.4355 40.0029 63.4431 39.9953C63.0278 39.3837 62.5483 38.8211 62.1141 38.2283C61.6799 37.6356 61.2494 37.0428 60.8303 36.4425C59.9808 35.2192 59.203 33.9505 58.3573 32.7235L58.3837 32.6782Z" fill="#263238"/>
<path d="M52.6372 36.9371C52.7694 37.1938 52.9129 37.4468 53.0148 37.7111L53.1583 38.0396C52.9582 37.0994 52.7807 36.1517 52.5731 35.2116C52.9733 36.7219 53.3773 38.2661 53.7473 39.799C54.0984 41.264 54.5251 42.744 54.7289 44.2391C54.9922 44.1237 55.2651 44.0314 55.5445 43.9635C55.2641 44.145 54.9623 44.2908 54.6459 44.3977C54.1907 42.8773 53.8127 41.3349 53.5132 39.7764C53.4188 39.3535 53.332 38.9306 53.2413 38.5077C53.1432 38.251 53.0261 38.0056 52.9091 37.7526C52.792 37.4996 52.6863 37.2165 52.5806 36.9484C52.6033 36.9333 52.6297 36.9182 52.6372 36.9371Z" fill="#263238"/>
<path d="M54.9441 42.8233C56.1524 42.1437 61.2004 39.5309 62.3293 39.0476C62.4086 39.0137 62.4501 39.0476 62.3708 39.1005C59.9747 40.4928 57.5042 41.7533 54.9706 42.8761C54.9404 42.8837 54.9102 42.8421 54.9441 42.8233Z" fill="#263238"/>
<path d="M193.295 142.085H78.2587L94.8904 47.7505H209.926L193.295 142.085Z" fill="#CD0606"/>
<path d="M134.263 37.9791H96.6158L94.8904 47.7505H135.18L134.263 37.9791Z" fill="#CD0606"/>
<g opacity="0.1">
<path d="M193.295 142.085H78.2587L94.8904 47.7505H209.926L193.295 142.085Z" fill="black"/>
<path d="M134.263 37.9791H96.6158L94.8904 47.7505H135.18L134.263 37.9791Z" fill="black"/>
</g>
<path d="M92.5532 41.9662C92.3015 40.8857 92.3015 39.7619 92.5532 38.6814C92.805 39.7619 92.805 40.8857 92.5532 41.9662Z" fill="#263238"/>
<path d="M89.2081 42.9328C88.8236 42.5341 88.4924 42.0874 88.2226 41.6038C87.9397 41.1302 87.7177 40.6227 87.5619 40.0935C87.9475 40.4898 88.2788 40.9354 88.5473 41.4188C88.8297 41.894 89.0516 42.4026 89.2081 42.9328Z" fill="#263238"/>
<path d="M86.7917 45.4435C85.7307 45.121 84.758 44.5591 83.9486 43.8011C84.4779 43.955 84.9854 44.1758 85.4589 44.4581C85.9426 44.7296 86.3903 45.0607 86.7917 45.4435Z" fill="#263238"/>
<path d="M85.9459 48.8265C84.8654 49.0782 83.7415 49.0782 82.6611 48.8265C83.7415 48.5748 84.8654 48.5748 85.9459 48.8265Z" fill="#263238"/>
<path d="M86.9276 52.1718C86.5273 52.5542 86.0808 52.8852 85.5986 53.1572C85.1252 53.4395 84.6176 53.6603 84.0883 53.8142C84.487 53.4297 84.9337 53.0985 85.4173 52.8287C85.8901 52.545 86.3978 52.3242 86.9276 52.1718Z" fill="#263238"/>
<path d="M89.4346 54.5844C89.1131 55.6469 88.5511 56.6211 87.7922 57.4312C87.9459 56.9012 88.168 56.3935 88.4529 55.9209C88.7221 55.4355 89.0519 54.9864 89.4346 54.5844Z" fill="#263238"/>
<path d="M92.8176 55.4188C92.9492 55.9561 93.0126 56.5079 93.0063 57.0612C93.0145 57.6145 92.951 58.1665 92.8176 58.7036C92.6822 58.1669 92.6188 57.6146 92.6288 57.0612C92.6225 56.5079 92.6859 55.9561 92.8176 55.4188Z" fill="#263238"/>
<path d="M96.1628 54.4711C96.5472 54.8698 96.8785 55.3165 97.1482 55.8001C97.4319 56.2729 97.6528 56.7806 97.8052 57.3104C97.0462 56.5003 96.4842 55.5261 96.1628 54.4636V54.4711Z" fill="#263238"/>
<path d="M98.5754 51.9414C99.1053 52.0938 99.613 52.3147 100.086 52.5984C100.569 52.8681 101.016 53.1994 101.415 53.5838C100.885 53.4314 100.377 53.2105 99.9045 52.9268C99.4208 52.6571 98.9741 52.3258 98.5754 51.9414Z" fill="#263238"/>
<path d="M99.4099 48.5584C100.492 48.3068 101.617 48.3068 102.698 48.5584C101.617 48.8101 100.492 48.8101 99.4099 48.5584Z" fill="#263238"/>
<path d="M98.4433 45.2133C98.843 44.8311 99.2896 44.5013 99.7723 44.2316C100.244 43.9452 100.752 43.723 101.283 43.5709C100.472 44.3298 99.4983 44.8918 98.4357 45.2133H98.4433Z" fill="#263238"/>
<path d="M95.9325 42.8006C96.0879 42.2719 96.3086 41.7646 96.5895 41.2904C96.8592 40.8067 97.1904 40.36 97.5749 39.9614C97.4225 40.4912 97.2016 40.9989 96.9179 41.4716C96.6482 41.9553 96.3169 42.402 95.9325 42.8006Z" fill="#263238"/>
<path d="M193.125 142.085H77.8434L61.4722 51.175H176.758L193.125 142.085Z" fill="#CD0606"/>
<path d="M101.422 106.749C104.068 106.749 106.214 104.603 106.214 101.957C106.214 99.3111 104.068 97.166 101.422 97.166C98.7761 97.166 96.631 99.3111 96.631 101.957C96.631 104.603 98.7761 106.749 101.422 106.749Z" fill="#263238"/>
<path d="M139.299 106.749C141.946 106.749 144.091 104.603 144.091 101.957C144.091 99.3111 141.946 97.166 139.299 97.166C136.653 97.166 134.508 99.3111 134.508 101.957C134.508 104.603 136.653 106.749 139.299 106.749Z" fill="#263238"/>
<path d="M127.244 107.515L126.98 107.013C126.957 106.968 124.48 102.391 119.5 102.391C114.969 102.391 113.837 106.699 113.806 106.884L113.67 107.432L112.572 107.168L112.704 106.616C112.704 106.564 114.056 101.259 119.5 101.259C125.163 101.259 127.871 106.273 127.984 106.488L128.248 106.986L127.244 107.515Z" fill="#263238"/>
<path d="M185.513 101.591L185.434 101.213C185.679 101.161 185.921 101.104 186.163 101.04L186.257 101.417C186 101.482 185.762 101.538 185.513 101.591Z" fill="#263238"/>
<path d="M187.718 100.983L187.597 100.628C188.069 100.466 188.541 100.288 188.998 100.096L189.145 100.443C188.681 100.64 188.202 100.821 187.718 100.983ZM190.531 99.7788L190.361 99.4465C190.803 99.2162 191.245 98.967 191.664 98.6914L191.86 99.0123C191.43 99.3106 190.98 99.5635 190.531 99.7788ZM193.129 98.1817L192.906 97.8758C193.314 97.5776 193.706 97.2642 194.076 96.9432L194.326 97.2264C193.929 97.57 193.552 97.8909 193.125 98.1968L193.129 98.1817ZM195.432 96.173L195.156 95.9125C195.504 95.5349 195.832 95.1574 196.134 94.7798L196.432 95.0101C196.119 95.4254 195.783 95.8143 195.439 96.1881L195.432 96.173ZM197.301 93.7566L196.98 93.5565C197.241 93.1347 197.473 92.6958 197.675 92.2426L198.022 92.3974C197.809 92.8698 197.566 93.3288 197.297 93.7717L197.301 93.7566ZM198.551 90.9551L198.173 90.8494C198.311 90.3757 198.413 89.8923 198.479 89.4033L198.856 89.4524C198.794 89.9658 198.69 90.4733 198.547 90.9702L198.551 90.9551ZM198.97 87.9346H198.592V87.8251C198.592 87.3682 198.566 86.9038 198.52 86.447L198.898 86.4092C198.948 86.8796 198.973 87.3521 198.973 87.8251L198.97 87.9346ZM198.29 84.9783C198.188 84.4915 198.062 84.0101 197.912 83.536L198.29 83.4227C198.445 83.9135 198.577 84.4119 198.668 84.899L198.29 84.9783ZM197.395 82.1352C197.214 81.6897 197.018 81.2328 196.776 80.7722L197.116 80.6023C197.346 81.0705 197.558 81.5387 197.743 81.9917L197.395 82.1352ZM196.074 79.4432C195.84 79.0316 195.583 78.5974 195.319 78.1519L195.64 77.9518C195.915 78.4011 196.176 78.8391 196.395 79.2582L196.074 79.4432ZM194.496 76.8795C194.22 76.4642 193.94 76.0451 193.654 75.626L193.967 75.4146C194.254 75.8337 194.533 76.2528 194.809 76.6756L194.496 76.8795ZM192.796 74.3801C192.513 73.9647 192.226 73.5456 191.947 73.1303L192.26 72.9189C192.54 73.3342 192.823 73.7533 193.106 74.1648L192.796 74.3801ZM191.109 71.8655C190.833 71.4426 190.565 71.0122 190.301 70.5818L190.622 70.3854C190.886 70.8158 191.154 71.2387 191.426 71.6616L191.109 71.8655ZM189.534 69.2716C189.278 68.8148 189.04 68.3617 188.824 67.9275L189.164 67.7576C189.376 68.188 189.614 68.6335 189.863 69.0866L189.534 69.2716ZM188.194 66.5532C187.994 66.0812 187.816 65.6017 187.65 65.1335L188.028 65.0127C188.186 65.4696 188.364 65.9415 188.56 66.4059L188.194 66.5532ZM187.212 63.6723C187.088 63.1815 186.978 62.6794 186.895 62.1621L187.273 62.1017C187.356 62.585 187.458 63.0758 187.582 63.5591L187.212 63.6723ZM186.706 60.6518C186.669 60.1874 186.65 59.7193 186.65 59.2511V59.1265H187.027V59.2473C187.027 59.7042 187.027 60.1648 187.084 60.6179L186.706 60.6518ZM187.084 57.6313L186.706 57.5936C186.706 57.4916 186.725 57.3859 186.737 57.2764C186.782 56.8724 186.839 56.4684 186.906 56.0833L187.284 56.1475C187.22 56.5251 187.163 56.9215 187.118 57.318C187.133 57.435 187.133 57.5369 187.103 57.6427L187.084 57.6313ZM187.609 54.6939L187.231 54.5919C187.371 54.0936 187.533 53.6065 187.714 53.1421L188.066 53.278C187.894 53.7455 187.748 54.2219 187.628 54.7052L187.609 54.6939ZM206.423 52.4927C206.211 52.4927 205.992 52.4625 205.777 52.4323C205.483 52.3908 205.188 52.3417 204.897 52.285L204.973 51.9075C205.252 51.9603 205.543 52.0094 205.83 52.0509C206.034 52.0774 206.242 52.0963 206.442 52.1076L206.423 52.4927ZM207.975 52.3756L207.895 51.9981C208.369 51.9002 208.823 51.7242 209.239 51.4771L209.436 51.798C208.991 52.0732 208.504 52.2722 207.993 52.387L207.975 52.3756ZM188.696 51.9263L188.36 51.7489C188.601 51.2986 188.867 50.8624 189.157 50.4425L189.466 50.6577C189.19 51.0689 188.94 51.4963 188.715 51.9377L188.696 51.9263ZM203.421 51.9037C202.934 51.7491 202.455 51.5689 201.986 51.3638L202.141 51.0164C202.595 51.2181 203.06 51.3933 203.534 51.5412L203.421 51.9037ZM210.595 50.7257L210.281 50.5143C210.55 50.1242 210.709 49.6691 210.742 49.1966L211.12 49.223C211.088 49.7646 210.91 50.2876 210.606 50.737L210.595 50.7257ZM200.627 50.6691C200.185 50.4122 199.758 50.1311 199.347 49.8271L199.57 49.525C199.97 49.8199 200.386 50.0922 200.816 50.3406L200.627 50.6691ZM190.395 49.4911L190.116 49.2381C190.458 48.8579 190.822 48.4985 191.207 48.162L191.456 48.4452C191.086 48.7766 190.735 49.1296 190.406 49.5024L190.395 49.4911ZM198.169 48.853C197.793 48.5066 197.436 48.1398 197.101 47.7543L197.384 47.5051C197.711 47.8795 198.057 48.2362 198.422 48.5736L198.169 48.853ZM210.459 47.8298C210.243 47.3983 209.944 47.0135 209.579 46.6971L209.828 46.4139C210.23 46.7609 210.559 47.1829 210.799 47.6561L210.459 47.8298ZM192.63 47.5315L192.415 47.2219C192.838 46.9335 193.275 46.6676 193.725 46.4252L193.903 46.7575C193.469 46.9972 193.048 47.2593 192.642 47.5428L192.63 47.5315ZM196.157 46.5498C196.013 46.346 195.874 46.1383 195.741 45.9231L195.251 46.1156L195.107 45.7683L195.541 45.5946C195.473 45.4813 195.405 45.3681 195.341 45.2548L195.67 45.0698C195.745 45.2019 195.821 45.3341 195.9 45.4474C196.111 45.3718 196.327 45.3001 196.546 45.2321L196.655 45.6097C196.47 45.6663 196.278 45.7268 196.104 45.7909C196.221 45.9759 196.342 46.1685 196.481 46.3309L196.157 46.5498ZM208.363 45.9004C207.998 45.7184 207.619 45.5644 207.231 45.4398L206.982 45.3605L207.091 44.983L207.348 45.066C207.752 45.1949 208.146 45.3553 208.526 45.5455L208.363 45.9004ZM198.101 45.2246L198.022 44.847C198.509 44.7375 199.015 44.6469 199.532 44.5752L199.589 44.9527C199.09 45.032 198.596 45.1264 198.113 45.2359L198.101 45.2246ZM205.539 45.0207C205.067 44.9376 204.569 44.8735 204.059 44.8282L204.089 44.4506C204.614 44.4959 205.124 44.5601 205.6 44.6469L205.539 45.0207ZM201.065 44.8017L201.039 44.4242C201.488 44.3977 201.937 44.3826 202.383 44.3826H202.568V44.7602H202.387C201.96 44.7715 201.514 44.7828 201.076 44.813L201.065 44.8017ZM194.684 43.8993C194.48 43.4387 194.307 42.9592 194.137 42.4722L194.514 42.3551C194.673 42.8308 194.85 43.299 195.047 43.7483L194.684 43.8993ZM193.729 40.9997C193.616 40.5126 193.521 40.0067 193.45 39.4894L193.827 39.4365C193.899 39.9349 193.99 40.4295 194.099 40.909L193.729 40.9997ZM193.306 37.9792C193.287 37.6393 193.276 37.292 193.276 36.9446C193.276 36.7823 193.276 36.6161 193.276 36.4538H193.654C193.654 36.6161 193.654 36.7747 193.654 36.9371C193.654 37.2769 193.654 37.6205 193.68 37.9489L193.306 37.9792ZM193.755 34.9586L193.378 34.9209C193.431 34.4225 193.503 33.9128 193.589 33.4106L193.967 33.4748C193.865 33.977 193.793 34.4603 193.744 34.9662L193.755 34.9586ZM194.273 32.0099L193.895 31.9193C194.016 31.4322 194.156 30.9414 194.31 30.4505L194.688 30.5676C194.518 31.0622 194.378 31.5417 194.261 32.0174L194.273 32.0099ZM195.179 29.1517L194.828 29.0158C195.013 28.5438 195.205 28.0719 195.436 27.615L195.775 27.7812C195.549 28.2342 195.349 28.6949 195.168 29.1744L195.179 29.1517ZM196.478 26.4597L196.149 26.2671C196.406 25.8329 196.682 25.3987 196.969 24.9834L197.278 25.1986C196.984 25.6139 196.716 26.0368 196.466 26.4672L196.478 26.4597ZM198.181 24.0017L197.886 23.7639C198.203 23.3863 198.543 22.9861 198.894 22.6312L199.166 22.8917C198.811 23.2466 198.479 23.6242 198.169 24.0093L198.181 24.0017ZM200.234 21.827L199.982 21.5476C200.359 21.2116 200.737 20.8793 201.141 20.5584L201.375 20.8566C200.971 21.1776 200.586 21.5061 200.223 21.8345L200.234 21.827ZM202.579 19.9618L202.364 19.6484C202.775 19.3653 203.206 19.0859 203.644 18.8216L203.836 19.1425C203.398 19.4106 202.991 19.6862 202.568 19.9694L202.579 19.9618ZM205.143 18.4025L204.965 18.0702C205.411 17.8324 205.871 17.6058 206.332 17.3944L206.491 17.738C206.011 17.9532 205.569 18.1797 205.131 18.41L205.143 18.4025ZM207.873 17.149L207.733 16.7941C208.209 16.6091 208.688 16.4165 209.164 16.2768L209.285 16.6544C208.805 16.7978 208.329 16.9715 207.861 17.1565L207.873 17.149Z" fill="#263238"/>
<path d="M210.784 16.1937L210.689 15.8161C211.157 15.6953 211.444 15.6425 211.444 15.6425L211.512 16.02C211.512 16.02 211.24 16.0767 210.784 16.1937Z" fill="#263238"/>
<path d="M217.459 13.7547C216.496 10.7719 210.047 11.8442 211.305 15.7444C212.562 19.6447 218.422 16.7412 217.459 13.7547Z" fill="#263238"/>
<path d="M207.797 12.5615C207.846 11.2514 209.666 10.2433 212.241 10.7077C214.816 11.1721 217.236 12.9089 217.236 12.9089C217.236 12.9089 214.695 14.4494 212.094 14.7325C209.492 15.0157 207.748 13.8679 207.797 12.5615Z" fill="#EBEBEB"/>
<path d="M217.236 12.9014C215.9 12.9014 214.567 12.8636 213.234 12.8221C211.901 12.7806 210.565 12.7126 209.232 12.6069C210.568 12.6069 211.905 12.6409 213.238 12.6824C214.571 12.7239 215.907 12.7919 217.236 12.9014Z" fill="#263238"/>
<path d="M210.383 11.3949C211.142 11.7579 211.858 12.205 212.517 12.7277C212.137 12.5495 211.769 12.3478 211.414 12.1236C211.057 11.901 210.712 11.6577 210.383 11.3949Z" fill="#263238"/>
<path d="M213.883 12.7767C213.2 13.3303 212.46 13.8088 211.675 14.2039C212.361 13.6497 213.105 13.1712 213.895 12.7767H213.883Z" fill="#263238"/>
<path d="M214.272 12.0405C214.653 12.2235 214.987 12.4923 215.246 12.8259C215.056 12.7359 214.877 12.6231 214.714 12.4898C214.55 12.3574 214.402 12.2066 214.272 12.0405Z" fill="#263238"/>
<path d="M210.251 20.3205C211.055 21.355 213.121 21.1058 214.937 19.2256C216.753 17.3453 217.716 14.5173 217.716 14.5173C217.716 14.5173 214.74 14.7439 212.471 16.0276C210.202 17.3113 209.443 19.2822 210.251 20.3205Z" fill="#EBEBEB"/>
<path d="M217.716 14.5173C216.628 15.2725 215.571 16.1107 214.51 16.9224C213.449 17.7342 212.411 18.5724 211.395 19.437C212.483 18.6819 213.54 17.8474 214.597 17.0357C215.654 16.2239 216.685 15.3857 217.716 14.5173Z" fill="#263238"/>
<path d="M213.026 19.7353C213.228 19.3685 213.408 18.9903 213.566 18.6026C213.727 18.2138 213.863 17.8153 213.974 17.4095C213.772 17.7759 213.591 18.1542 213.434 18.5422C213.275 18.9316 213.139 19.33 213.026 19.7353Z" fill="#263238"/>
<path d="M215.073 16.5788C214.189 16.5316 213.303 16.5784 212.43 16.7185C212.87 16.745 213.311 16.745 213.751 16.7185C214.194 16.6969 214.635 16.6503 215.073 16.5788Z" fill="#263238"/>
<path d="M215.801 16.9526C215.902 16.7661 215.981 16.5684 216.035 16.3636C216.091 16.1602 216.124 15.9513 216.134 15.7406C215.933 16.1144 215.819 16.5287 215.801 16.9526Z" fill="#263238"/>
<path d="M217.459 13.7546C217.246 13.8239 217.017 13.8283 216.801 13.7673C216.585 13.7063 216.392 13.5827 216.247 13.412C216.102 13.2414 216.01 13.0315 215.984 12.8088C215.958 12.5861 215.999 12.3607 216.101 12.1611C216.203 11.9616 216.362 11.7968 216.558 11.6877C216.754 11.5787 216.978 11.5301 217.201 11.5484C217.425 11.5666 217.638 11.6507 217.813 11.79C217.989 11.9294 218.119 12.1177 218.188 12.3312C218.279 12.6166 218.254 12.9267 218.117 13.1935C217.981 13.4603 217.744 13.6621 217.459 13.7546Z" fill="#455A64"/>
<path d="M218.154 15.9106C217.94 15.9795 217.712 15.9837 217.496 15.9227C217.281 15.8617 217.088 15.7381 216.943 15.5676C216.798 15.3972 216.706 15.1874 216.68 14.965C216.654 14.7425 216.694 14.5173 216.796 14.3178C216.898 14.1183 217.057 13.9535 217.252 13.8442C217.448 13.7349 217.671 13.686 217.894 13.7037C218.118 13.7215 218.331 13.805 218.507 13.9438C218.682 14.0825 218.813 14.2703 218.882 14.4834C218.928 14.6249 218.946 14.7741 218.934 14.9225C218.922 15.0708 218.881 15.2154 218.814 15.348C218.746 15.4805 218.653 15.5984 218.54 15.6949C218.426 15.7915 218.295 15.8647 218.154 15.9106Z" fill="#455A64"/>
<path d="M94.3694 14.9477C94.1884 16.6819 93.5292 18.3317 92.4652 19.7131C91.4012 21.0944 89.9742 22.1529 88.3436 22.7704C86.713 23.388 84.9429 23.5403 83.2308 23.2103C81.5187 22.8804 79.9319 22.0812 78.6476 20.9019L73.9394 21.5928L76.2954 17.5227C75.7566 16.1983 75.5267 14.7686 75.6232 13.3421C75.7197 11.9156 76.14 10.5299 76.8523 9.29018C77.5645 8.05045 78.5499 6.98933 79.7336 6.18744C80.9173 5.38554 82.2681 4.86396 83.6836 4.6623C85.099 4.46064 86.5418 4.58421 87.9024 5.02363C89.2629 5.46305 90.5055 6.20676 91.5356 7.19826C92.5656 8.18976 93.3562 9.40298 93.8473 10.7458C94.3383 12.0886 94.5168 13.5256 94.3694 14.9477Z" fill="white"/>
<path d="M94.3693 14.9477C94.1923 16.681 93.5389 18.3315 92.4815 19.7163C91.9649 20.4167 91.342 21.0321 90.6353 21.54C89.944 22.0669 89.1812 22.4928 88.3699 22.8048C87.5581 23.1245 86.7051 23.3279 85.8364 23.4089C85.4021 23.4479 84.9656 23.4567 84.53 23.4353C84.093 23.4241 83.6574 23.3787 83.2274 23.2994C81.4922 22.9802 79.8802 22.184 78.5721 21.0001L78.6816 21.034L73.9809 21.7552L73.6373 21.808L73.811 21.506L76.1519 17.4283V17.5907C75.5995 16.2419 75.3647 14.7841 75.4655 13.3301C75.5663 11.876 76.0001 10.4646 76.7334 9.20497C77.4657 7.94927 78.4725 6.87539 79.6783 6.06364C80.8823 5.26267 82.252 4.74468 83.6846 4.54851C85.1173 4.35234 86.5758 4.48309 87.9508 4.93095C89.3112 5.39376 90.5509 6.15487 91.5792 7.15858C92.6052 8.15978 93.3897 9.38153 93.8732 10.7311C94.3566 12.0807 94.5263 13.5227 94.3693 14.9477ZM94.3693 14.9477C94.5219 13.5298 94.3466 12.0957 93.8569 10.7563C93.3672 9.41687 92.5763 8.2079 91.5451 7.22272C90.5139 6.23754 89.2702 5.50251 87.9098 5.07437C86.5495 4.64624 85.1089 4.53645 83.6994 4.7535C82.304 4.96003 80.9748 5.4845 79.8143 6.2864C78.6637 7.09461 77.7027 8.14328 76.9976 9.35977C76.3035 10.579 75.8943 11.9395 75.8008 13.3393C75.7088 14.7486 75.936 16.1605 76.4653 17.4698L76.4993 17.5529L76.454 17.6322L74.0829 21.6948L73.9167 21.4456L78.6287 20.7848H78.6929L78.7382 20.8264C79.9978 21.9987 81.5587 22.7975 83.2463 23.1333C83.6669 23.219 84.0936 23.2707 84.5225 23.2881C84.9511 23.3183 85.3814 23.3183 85.81 23.2881C86.6696 23.2188 87.5157 23.0321 88.3246 22.7331C89.1353 22.4379 89.8985 22.0258 90.5899 21.5098C91.2937 21.0059 91.9174 20.3988 92.44 19.7088C93.5109 18.3307 94.1788 16.6826 94.3693 14.9477Z" fill="#263238"/>
<path d="M80.4108 18.3571C80.4036 18.2321 80.4221 18.1069 80.4652 17.9894C80.5084 17.8718 80.5752 17.7644 80.6616 17.6738C80.748 17.5832 80.8521 17.5112 80.9674 17.4625C81.0828 17.4138 81.2069 17.3893 81.3321 17.3905C81.5884 17.3905 81.8343 17.4924 82.0155 17.6736C82.1968 17.8549 82.2987 18.1007 82.2987 18.3571C82.2987 18.6134 82.1968 18.8593 82.0155 19.0406C81.8343 19.2218 81.5884 19.3237 81.3321 19.3237C81.2069 19.3249 81.0828 19.3004 80.9674 19.2517C80.8521 19.2029 80.748 19.131 80.6616 19.0404C80.5752 18.9498 80.5084 18.8423 80.4652 18.7248C80.4221 18.6072 80.4036 18.4821 80.4108 18.3571ZM80.7884 16.1257L80.5694 8.63483H82.0797L81.8607 16.1257H80.7884Z" fill="#CD0606"/>
<path d="M84.0015 18.3571C83.9942 18.2324 84.0126 18.1076 84.0556 17.9903C84.0985 17.873 84.165 17.7658 84.251 17.6752C84.3369 17.5846 84.4406 17.5126 84.5555 17.4636C84.6703 17.4147 84.7941 17.3898 84.9189 17.3905C85.1753 17.3905 85.4211 17.4924 85.6024 17.6736C85.7837 17.8549 85.8855 18.1007 85.8855 18.3571C85.8855 18.6134 85.7837 18.8593 85.6024 19.0406C85.4211 19.2218 85.1753 19.3237 84.9189 19.3237C84.7941 19.3244 84.6703 19.2995 84.5555 19.2505C84.4406 19.2016 84.3369 19.1296 84.251 19.039C84.165 18.9484 84.0985 18.8412 84.0556 18.7239C84.0126 18.6066 83.9942 18.4818 84.0015 18.3571ZM84.379 16.1257L84.1714 8.63483H85.6816L85.4626 16.1257H84.379Z" fill="#CD0606"/>
<path d="M87.5883 18.3571C87.5811 18.2321 87.5996 18.1069 87.6427 17.9894C87.6859 17.8718 87.7527 17.7644 87.8391 17.6738C87.9255 17.5832 88.0296 17.5112 88.1449 17.4625C88.2603 17.4138 88.3844 17.3893 88.5096 17.3905C88.7659 17.3905 89.0118 17.4924 89.193 17.6736C89.3743 17.8549 89.4761 18.1007 89.4761 18.3571C89.4761 18.6134 89.3743 18.8593 89.193 19.0406C89.0118 19.2218 88.7659 19.3237 88.5096 19.3237C88.3844 19.3249 88.2603 19.3004 88.1449 19.2517C88.0296 19.2029 87.9255 19.131 87.8391 19.0404C87.7527 18.9498 87.6859 18.8423 87.6427 18.7248C87.5996 18.6072 87.5811 18.4821 87.5883 18.3571ZM87.9659 16.1257L87.7469 8.63483H89.2571L89.0419 16.1257H87.9659Z" fill="#CD0606"/>
</svg>
