<svg width="40" height="40" viewBox="0 0 40 40" fill="none" xmlns="http://www.w3.org/2000/svg">
<path d="M16.6568 16.1544L16.6574 16.1547L16.6568 16.1544ZM16.6568 16.1544L16.6566 16.1543M16.6568 16.1544L16.6566 16.1543M16.6566 16.1543C16.656 16.1539 16.6571 16.1546 16.6595 16.1561L16.6566 16.1543ZM9.72266 23.6107C10.4056 24.2936 11.3664 24.5403 12.25 24.3507V28.3333C12.25 29.8451 13.4882 31.0833 15 31.0833C16.5118 31.0833 17.75 29.8451 17.75 28.3333V24.3545C17.9428 24.3961 18.1385 24.4167 18.3333 24.4167C19.0264 24.4167 19.7312 24.1568 20.2773 23.6107C21.3464 22.5416 21.3464 20.7918 20.2773 19.7227L17.0237 16.4691C16.9523 16.3849 16.8813 16.3198 16.8236 16.2726C16.6317 16.0966 16.355 15.8915 16.01 15.7622L15.7553 15.6667H15.6778C15.4964 15.6192 15.2843 15.5833 15.05 15.5833H15.0497H15.0494H15.0491H15.0488H15.0485H15.0482H15.0479H15.0477H15.0474H15.0471H15.0468H15.0465H15.0462H15.0459H15.0456H15.0453H15.0451H15.0448H15.0445H15.0442H15.0439H15.0436H15.0433H15.0431H15.0428H15.0425H15.0422H15.0419H15.0416H15.0414H15.0411H15.0408H15.0405H15.0402H15.04H15.0397H15.0394H15.0391H15.0388H15.0386H15.0383H15.038H15.0377H15.0374H15.0372H15.0369H15.0366H15.0363H15.0361H15.0358H15.0355H15.0352H15.035H15.0347H15.0344H15.0341H15.0339H15.0336H15.0333H15.033H15.0328H15.0325H15.0322H15.032H15.0317H15.0314H15.0311H15.0309H15.0306H15.0303H15.0301H15.0298H15.0295H15.0293H15.029H15.0287H15.0284H15.0282H15.0279H15.0276H15.0274H15.0271H15.0268H15.0266H15.0263H15.026H15.0258H15.0255H15.0253H15.025H15.0247H15.0245H15.0242H15.0239H15.0237H15.0234H15.0231H15.0229H15.0226H15.0224H15.0221H15.0218H15.0216H15.0213H15.021H15.0208H15.0205H15.0203H15.02H15.0197H15.0195H15.0192H15.019H15.0187H15.0184H15.0182H15.0179H15.0177H15.0174H15.0171H15.0169H15.0166H15.0164H15.0161H15.0159H15.0156H15.0153H15.0151H15.0148H15.0146H15.0143H15.0141H15.0138H15.0136H15.0133H15.013H15.0128H15.0125H15.0123H15.012H15.0118H15.0115H15.0113H15.011H15.0108H15.0105H15.0103H15.01H15.0097H15.0095H15.0092H15.009H15.0087H15.0085H15.0082H15.008H15.0077H15.0075H15.0072H15.007H15.0067H15.0065H15.0062H15.006H15.0057H15.0055H15.0052H15.005H15.0047H15.0045H15.0042H15.004H15.0037H15.0035H15.0032H15.003H15.0027H15.0025H15.0022H15.002H15.0017H15.0015H15.0012H15.001H15.0007H15.0005H15.0002H15H14.9998H14.9995H14.9993H14.999H14.9988H14.9985H14.9983H14.998H14.9978H14.9975H14.9973H14.997H14.9968H14.9965H14.9963H14.9961H14.9958H14.9956H14.9953H14.9951H14.9948H14.9946H14.9943H14.9941H14.9938H14.9936H14.9933H14.9931H14.9929H14.9926H14.9924H14.9921H14.9919H14.9916H14.9914H14.9911H14.9909H14.9907H14.9904H14.9902H14.9899H14.9897H14.9894H14.9892H14.9889H14.9887H14.9885H14.9882H14.988H14.9877H14.9875H14.9872H14.987H14.9867H14.9865H14.9863H14.986H14.9858H14.9855H14.9853H14.985H14.9848H14.9845H14.9843H14.9841H14.9838H14.9836H14.9833H14.9831H14.9828H14.9826H14.9823H14.9821H14.9819H14.9816H14.9814H14.9811H14.9809H14.9806H14.9804H14.9801H14.9799H14.9797H14.9794H14.9792H14.9789H14.9787H14.9784H14.9782H14.9779H14.9777H14.9775H14.9772H14.977H14.9767H14.9765H14.9762H14.976H14.9757H14.9755H14.9753H14.975H14.9748H14.9745H14.9743H14.974H14.9738H14.9735H14.9733H14.9731H14.9728H14.9726H14.9723H14.9721H14.9718H14.9716H14.9713H14.9711H14.9708H14.9706H14.9703H14.9701H14.9699H14.9696H14.9694H14.9691H14.9689H14.9686H14.9684H14.9681H14.9679H14.9676H14.9674H14.9671H14.9669H14.9666H14.9664H14.9661H14.9659H14.9657H14.9654H14.9652H14.9649H14.9647H14.9644H14.9642H14.9639H14.9637H14.9634H14.9632H14.9629H14.9627H14.9624H14.9622H14.9619H14.9617H14.9614H14.9612H14.9609H14.9607H14.9604H14.9602H14.9599H14.9597H14.9594H14.9592H14.9589H14.9587H14.9584H14.9582H14.9579H14.9577H14.9574H14.9571H14.9569H14.9566H14.9564H14.9561H14.9559H14.9556H14.9554H14.9551H14.9549H14.9546H14.9544H14.9541H14.9539H14.9536H14.9533H14.9531H14.9528H14.9526H14.9523H14.9521H14.9518H14.9516H14.9513H14.951H14.9508H14.9505H14.9503H14.95H14.9498H14.9495H14.9492H14.949H14.9487H14.9485H14.9482H14.9479H14.9477H14.9474H14.9472H14.9469H14.9466H14.9464H14.9461H14.9459H14.9456H14.9453H14.9451H14.9448H14.9446H14.9443H14.944H14.9438H14.9435H14.9432H14.943H14.9427H14.9425H14.9422H14.9419H14.9417H14.9414H14.9411H14.9409H14.9406H14.9403H14.9401H14.9398H14.9395H14.9393H14.939H14.9387H14.9385H14.9382H14.9379H14.9377H14.9374H14.9371H14.9369H14.9366H14.9363H14.936H14.9358H14.9355H14.9352H14.935H14.9347H14.9344H14.9341H14.9339H14.9336H14.9333H14.9331H14.9328H14.9325H14.9322H14.932H14.9317H14.9314H14.9311H14.9309H14.9306H14.9303H14.93H14.9298H14.9295H14.9292H14.9289H14.9286H14.9284H14.9281H14.9278H14.9275H14.9272H14.927H14.9267H14.9264H14.9261H14.9258H14.9256H14.9253H14.925H14.9247H14.9244H14.9241H14.9239H14.9236H14.9233H14.923H14.9227H14.9224H14.9222H14.9219H14.9216H14.9213H14.921H14.9207H14.9204H14.9201H14.9199H14.9196H14.9193H14.919H14.9187H14.9184H14.9181H14.9178H14.9175H14.9172H14.9169H14.9167H14.8101L14.7045 15.5984C14.5803 15.6162 14.3641 15.6475 14.1256 15.727L14.0245 15.7607L13.9681 15.7889C13.9574 15.7932 13.9434 15.7989 13.9289 15.8051C13.9047 15.8152 13.862 15.8336 13.8125 15.8584C13.54 15.9946 13.3214 16.1561 13.1405 16.3111L13.0967 16.3486L13.056 16.3894L9.72266 19.7227C8.65354 20.7918 8.65354 22.5416 9.72266 23.6107ZM29.35 18.4833H34.1667C34.2078 18.4833 34.2483 18.4988 34.2831 18.5336C34.3178 18.5683 34.3333 18.6088 34.3333 18.65V27.3833C34.3333 29.9904 33.435 31.8995 32.0898 33.1629C30.7297 34.4403 28.7953 35.1667 26.55 35.1667H13.45C11.2047 35.1667 9.27028 34.4403 7.91023 33.1629C6.56502 31.8995 5.66666 29.9904 5.66666 27.3833V12.6167C5.66666 10.0096 6.56502 8.10056 7.91023 6.83714C9.27028 5.55977 11.2047 4.83334 13.45 4.83334H20.5167C20.5578 4.83334 20.5983 4.84883 20.6331 4.88359C20.6678 4.91834 20.6833 4.95884 20.6833 5.00001V9.81668C20.6833 14.5951 24.5716 18.4833 29.35 18.4833Z" fill="#015AA8" stroke="#015AA8" stroke-width="3"/>
<path d="M29.0658 13.1834L29.0579 13.1833H29.05C27.322 13.1833 25.9667 11.799 25.9667 10.2333V5.43911C27.5844 7.0616 29.7179 9.21453 31.6178 11.1318C32.3501 11.8708 33.0478 12.5748 33.6678 13.1999C32.0574 13.1995 30.3546 13.197 29.0658 13.1834Z" fill="#015AA8" stroke="#015AA8" stroke-width="3"/>
</svg>
