<svg width="40" height="40" viewBox="0 0 40 40" fill="none" xmlns="http://www.w3.org/2000/svg">
<path d="M13.6667 36.3167C14.35 37 15.5333 36.5333 15.5333 35.5833V29.7667C15.5333 27.3333 13.4667 25.3167 10.95 25.3167C9.36666 25.3 7.16666 25.3 5.28333 25.3C4.33333 25.3 3.83333 26.4167 4.49999 27.0833C6.89999 29.5 11.2 33.85 13.6667 36.3167Z" fill="#FFFBFF"/>
<path d="M5.83337 23.0167H10.65C14.6 23.0167 17.8167 26.2333 17.8167 30.1833V35C17.8167 35.9167 18.5667 36.6667 19.4834 36.6667H26.55C31.6834 36.6667 35.8334 33.3333 35.8334 27.3833V12.6167C35.8334 6.66665 31.6834 3.33332 26.55 3.33332H13.45C8.31671 3.33332 4.16671 6.66665 4.16671 12.6167V21.35C4.16671 22.2667 4.91671 23.0167 5.83337 23.0167ZM18.3334 13.75L25.3167 13.75L24.1167 12.55C23.6334 12.0667 23.6334 11.2667 24.1167 10.7833C24.3667 10.5333 24.6834 10.4167 25 10.4167C25.3167 10.4167 25.6334 10.5333 25.8834 10.7833L29.2167 14.1167C29.3334 14.2333 29.4 14.35 29.4667 14.4833C29.4834 14.5167 29.5 14.5667 29.5167 14.6C29.55 14.7 29.5667 14.8 29.5834 14.9C29.5834 14.95 29.5834 14.9833 29.5834 15.0333C29.5834 15.1667 29.55 15.3 29.5 15.4333C29.5 15.45 29.5 15.45 29.4834 15.4667C29.4334 15.6 29.3334 15.7333 29.2334 15.8333C29.2167 15.85 29.2167 15.8667 29.2 15.8667L25.8667 19.2C25.3834 19.6833 24.5834 19.6833 24.1 19.2C23.6167 18.7167 23.6167 17.9167 24.1 17.4333L25.3 16.2333L18.3334 16.2333C17.65 16.2333 17.0834 15.6667 17.0834 14.9833C17.0834 14.3 17.65 13.75 18.3334 13.75Z" fill="#FFFBFF"/>
</svg>
