<svg width="40" height="40" viewBox="0 0 40 40" fill="none" xmlns="http://www.w3.org/2000/svg">
<path d="M34.1666 16.9833H29.35C25.4 16.9833 22.1833 13.7667 22.1833 9.81668V5.00001C22.1833 4.08334 21.4333 3.33334 20.5166 3.33334H13.45C8.31663 3.33334 4.16663 6.66668 4.16663 12.6167V27.3833C4.16663 33.3333 8.31663 36.6667 13.45 36.6667H26.55C31.6833 36.6667 35.8333 33.3333 35.8333 27.3833V18.65C35.8333 17.7333 35.0833 16.9833 34.1666 16.9833ZM19.2166 22.55C18.9666 22.8 18.65 22.9167 18.3333 22.9167C18.0166 22.9167 17.7 22.8 17.45 22.55L16.25 21.35V28.3333C16.25 29.0167 15.6833 29.5833 15 29.5833C14.3166 29.5833 13.75 29.0167 13.75 28.3333V21.35L12.55 22.55C12.0666 23.0333 11.2666 23.0333 10.7833 22.55C10.3 22.0667 10.3 21.2667 10.7833 20.7833L14.1166 17.45C14.2333 17.35 14.35 17.2667 14.4833 17.2C14.5166 17.1833 14.5666 17.1667 14.6 17.15C14.7 17.1167 14.8 17.1 14.9166 17.0833C14.9666 17.0833 15 17.0833 15.05 17.0833C15.1833 17.0833 15.3166 17.1167 15.45 17.1667C15.4666 17.1667 15.4666 17.1667 15.4833 17.1667C15.6166 17.2167 15.75 17.3167 15.85 17.4167C15.8666 17.4333 15.8833 17.4333 15.8833 17.45L19.2166 20.7833C19.7 21.2667 19.7 22.0667 19.2166 22.55Z" fill="#FFFBFF"/>
<path d="M29.05 14.6833C30.6333 14.7 32.8333 14.7 34.7167 14.7C35.6667 14.7 36.1667 13.5833 35.5 12.9167C33.1 10.5 28.8 6.15001 26.3333 3.68334C25.65 3.00001 24.4667 3.46668 24.4667 4.41668V10.2333C24.4667 12.6667 26.5333 14.6833 29.05 14.6833Z" fill="#FFFBFF"/>
</svg>
