<svg width="41" height="40" viewBox="0 0 41 40" fill="none" xmlns="http://www.w3.org/2000/svg">
<path d="M11.1842 26.8166L11.1921 26.8167H11.2C12.928 26.8167 14.2833 28.201 14.2833 29.7667V34.5609C12.6656 32.9384 10.5321 30.7855 8.63222 28.8682C7.89987 28.1292 7.20222 27.4252 6.5822 26.8001C8.19259 26.8005 9.89542 26.803 11.1842 26.8166Z" fill="#E0AF00" stroke="#E0AF00" stroke-width="3"/>
<path d="M22.5493 17.7333C22.3597 18.6169 22.6064 19.5777 23.2893 20.2607C24.3585 21.3298 26.1082 21.3298 27.1773 20.2607L30.431 17.007C30.5151 16.9356 30.5802 16.8646 30.6274 16.8069C30.7692 16.6523 30.9299 16.4425 31.0547 16.1864C31.0664 16.1655 31.0781 16.1437 31.0896 16.1208C31.1381 16.0237 31.1719 15.9301 31.1955 15.8442C31.2671 15.6292 31.3333 15.3517 31.3333 15.0333V15.033V15.0327V15.0324V15.0322V15.0319V15.0316V15.0313V15.031V15.0307V15.0304V15.0301V15.0298V15.0295V15.0293V15.029V15.0287V15.0284V15.0281V15.0278V15.0275V15.0273V15.027V15.0267V15.0264V15.0261V15.0258V15.0255V15.0253V15.025V15.0247V15.0244V15.0241V15.0239V15.0236V15.0233V15.023V15.0227V15.0225V15.0222V15.0219V15.0216V15.0213V15.0211V15.0208V15.0205V15.0202V15.0199V15.0197V15.0194V15.0191V15.0188V15.0186V15.0183V15.018V15.0177V15.0175V15.0172V15.0169V15.0167V15.0164V15.0161V15.0158V15.0156V15.0153V15.015V15.0147V15.0145V15.0142V15.0139V15.0137V15.0134V15.0131V15.0129V15.0126V15.0123V15.0121V15.0118V15.0115V15.0112V15.011V15.0107V15.0104V15.0102V15.0099V15.0096V15.0094V15.0091V15.0089V15.0086V15.0083V15.0081V15.0078V15.0075V15.0073V15.007V15.0067V15.0065V15.0062V15.0059V15.0057V15.0054V15.0052V15.0049V15.0046V15.0044V15.0041V15.0039V15.0036V15.0033V15.0031V15.0028V15.0026V15.0023V15.002V15.0018V15.0015V15.0013V15.001V15.0007V15.0005V15.0002V15V14.9997V14.9995V14.9992V14.9989V14.9987V14.9984V14.9982V14.9979V14.9977V14.9974V14.9971V14.9969V14.9966V14.9964V14.9961V14.9959V14.9956V14.9954V14.9951V14.9949V14.9946V14.9943V14.9941V14.9938V14.9936V14.9933V14.9931V14.9928V14.9926V14.9923V14.9921V14.9918V14.9916V14.9913V14.9911V14.9908V14.9906V14.9903V14.9901V14.9898V14.9896V14.9893V14.9891V14.9888V14.9886V14.9883V14.9881V14.9878V14.9876V14.9873V14.9871V14.9868V14.9866V14.9863V14.9861V14.9858V14.9856V14.9853V14.9851V14.9848V14.9846V14.9843V14.9841V14.9838V14.9836V14.9833V14.9831V14.9828V14.9826V14.9823V14.9821V14.9819V14.9816V14.9814V14.9811V14.9809V14.9806V14.9804V14.9801V14.9799V14.9796V14.9794V14.9791V14.9789V14.9786V14.9784V14.9782V14.9779V14.9777V14.9774V14.9772V14.9769V14.9767V14.9764V14.9762V14.9759V14.9757V14.9755V14.9752V14.975V14.9747V14.9745V14.9742V14.974V14.9737V14.9735V14.9733V14.973V14.9728V14.9725V14.9723V14.972V14.9718V14.9715V14.9713V14.9711V14.9708V14.9706V14.9703V14.9701V14.9698V14.9696V14.9693V14.9691V14.9689V14.9686V14.9684V14.9681V14.9679V14.9676V14.9674V14.9671V14.9669V14.9667V14.9664V14.9662V14.9659V14.9657V14.9654V14.9652V14.9649V14.9647V14.9645V14.9642V14.964V14.9637V14.9635V14.9632V14.963V14.9627V14.9625V14.9623V14.962V14.9618V14.9615V14.9613V14.961V14.9608V14.9605V14.9603V14.9601V14.9598V14.9596V14.9593V14.9591V14.9588V14.9586V14.9583V14.9581V14.9579V14.9576V14.9574V14.9571V14.9569V14.9566V14.9564V14.9561V14.9559V14.9556V14.9554V14.9552V14.9549V14.9547V14.9544V14.9542V14.9539V14.9537V14.9534V14.9532V14.9529V14.9527V14.9524V14.9522V14.952V14.9517V14.9515V14.9512V14.951V14.9507V14.9505V14.9502V14.95V14.9497V14.9495V14.9492V14.949V14.9487V14.9485V14.9482V14.948V14.9477V14.9475V14.9472V14.947V14.9467V14.9465V14.9462V14.946V14.9458V14.9455V14.9453V14.945V14.9448V14.9445V14.9443V14.944V14.9438V14.9435V14.9432V14.943V14.9427V14.9425V14.9422V14.942V14.9417V14.9415V14.9412V14.941V14.9407V14.9405V14.9402V14.94V14.9397V14.9395V14.9392V14.939V14.9387V14.9385V14.9382V14.9379V14.9377V14.9374V14.9372V14.9369V14.9367V14.9364V14.9362V14.9359V14.9357V14.9354V14.9351V14.9349V14.9346V14.9344V14.9341V14.9339V14.9336V14.9333V14.9331V14.9328V14.9326V14.9323V14.9321V14.9318V14.9315V14.9313V14.931V14.9308V14.9305V14.9302V14.93V14.9297V14.9295V14.9292V14.9289V14.9287V14.9284V14.9282V14.9279V14.9276V14.9274V14.9271V14.9268V14.9266V14.9263V14.926V14.9258V14.9255V14.9253V14.925V14.9247V14.9245V14.9242V14.9239V14.9237V14.9234V14.9231V14.9229V14.9226V14.9223V14.9221V14.9218V14.9215V14.9213V14.921V14.9207V14.9205V14.9202V14.9199V14.9196V14.9194V14.9191V14.9188V14.9186V14.9183V14.918V14.9177V14.9175V14.9172V14.9169V14.9167V14.9164V14.9161V14.9158V14.9156V14.9153V14.915V14.9147V14.9145V14.9142V14.9139V14.9136V14.9134V14.9131V14.9128V14.9125V14.9123V14.912V14.9117V14.9114V14.9111V14.9109V14.9106V14.9103V14.91V14.9097V14.9095V14.9092V14.9089V14.9086V14.9083V14.908V14.9078V14.9075V14.9072V14.9069V14.9066V14.9063V14.9061V14.9058V14.9055V14.9052V14.9049V14.9046V14.9043V14.9041V14.9038V14.9035V14.9032V14.9029V14.9026V14.9023V14.902V14.9017V14.9014V14.9012V14.9009V14.9006V14.9003V14.9V14.7758L31.3129 14.6534C31.3121 14.6483 31.3112 14.6427 31.3102 14.6367C31.2948 14.5435 31.2614 14.3409 31.1897 14.1256L31.156 14.0245L31.1278 13.9681C31.1235 13.9574 31.1177 13.9434 31.1116 13.9288C31.1014 13.9047 31.0831 13.862 31.0583 13.8125C30.9654 13.6267 30.813 13.3417 30.5273 13.056L27.194 9.72266C26.6479 9.17653 25.943 8.91665 25.25 8.91665C24.557 8.91665 23.8521 9.17653 23.306 9.72266C22.623 10.4056 22.3763 11.3664 22.566 12.25L18.5833 12.25C17.0979 12.25 15.8333 13.4455 15.8333 14.9833C15.8333 16.4951 17.0716 17.7333 18.5833 17.7333L22.5493 17.7333ZM10.9 21.5167H6.08333C6.04216 21.5167 6.00166 21.5012 5.96691 21.4664C5.93215 21.4317 5.91666 21.3912 5.91666 21.35V12.6167C5.91666 10.0096 6.81502 8.10054 8.16023 6.83711C9.52028 5.55975 11.4547 4.83332 13.7 4.83332L26.8 4.83332C29.0453 4.83332 30.9797 5.55975 32.3398 6.83711C33.685 8.10054 34.5833 10.0096 34.5833 12.6167V27.3833C34.5833 29.9904 33.685 31.8994 32.3398 33.1629C30.9797 34.4402 29.0453 35.1667 26.8 35.1667H19.7333C19.6922 35.1667 19.6517 35.1512 19.6169 35.1164C19.5821 35.0817 19.5667 35.0412 19.5667 35V30.1833C19.5667 25.4049 15.6784 21.5167 10.9 21.5167ZM30.7458 16.6399C30.7461 16.6393 30.7454 16.6404 30.744 16.6428L30.7453 16.6407L30.7456 16.6401L30.7458 16.6399Z" fill="#E0AF00" stroke="#E0AF00" stroke-width="3"/>
</svg>
