<svg width="25" height="24" viewBox="0 0 25 24" fill="none" xmlns="http://www.w3.org/2000/svg">
<path d="M11.667 2H9.66699C4.66699 2 2.66699 4 2.66699 9V15C2.66699 20 4.66699 22 9.66699 22H15.667C20.667 22 22.667 20 22.667 15V13" stroke="#FFFBFF" stroke-linecap="round" stroke-linejoin="round"/>
<path d="M16.7069 3.02001L8.82687 10.9C8.52687 11.2 8.22687 11.79 8.16687 12.22L7.73687 15.23C7.57687 16.32 8.34687 17.08 9.43687 16.93L12.4469 16.5C12.8669 16.44 13.4569 16.14 13.7669 15.84L21.6469 7.96001C23.0069 6.60001 23.6469 5.02001 21.6469 3.02001C19.6469 1.02001 18.0669 1.66001 16.7069 3.02001Z" stroke="#FFFBFF" stroke-miterlimit="10" stroke-linecap="round" stroke-linejoin="round"/>
<path d="M15.5771 4.15002C16.2471 6.54002 18.1171 8.41002 20.5171 9.09002" stroke="#FFFBFF" stroke-miterlimit="10" stroke-linecap="round" stroke-linejoin="round"/>
</svg>
