<svg width="41" height="40" viewBox="0 0 41 40" fill="none" xmlns="http://www.w3.org/2000/svg">
<path d="M18.765 6.56447L18.765 6.56447L18.7682 6.56874L21.1015 9.66874L21.1035 9.67134C21.1191 9.692 21.1361 9.7148 21.1544 9.73938C21.3481 10 21.6918 10.4624 22.2082 10.7339C22.7783 11.0337 23.4025 11.0335 23.8236 11.0333L23.85 11.0333H28.5C30.8808 11.0333 33.0027 12.1602 34.3558 13.9167H5.58333V10.7C5.58333 7.46177 8.21176 4.83334 11.45 4.83334H15.3167C16.5164 4.83334 17.117 5.02886 17.4969 5.25107C17.9003 5.48703 18.2299 5.84821 18.765 6.56447Z" fill="#D73737" stroke="#D73737" stroke-width="3"/>
<path d="M25.6735 31.563L25.6924 31.5454L25.7107 31.5271C26.7798 30.458 26.7798 28.7082 25.7107 27.6391L24.7047 26.6331L25.644 25.6938C26.7228 24.6149 26.6974 22.8952 25.6618 21.8239L25.6441 21.8056L25.6259 21.7879C24.5545 20.7523 22.8348 20.7269 21.756 21.8058L20.8167 22.7451L19.8107 21.7391C18.7318 20.6603 17.0121 20.6857 15.9408 21.7213L15.9317 21.7301L15.9227 21.7391C14.8535 22.8082 14.8535 24.558 15.9227 25.6271L16.9287 26.6331L15.856 27.7058C14.7869 28.7749 14.7869 30.5246 15.856 31.5938L15.8743 31.612L15.8932 31.6297C16.3898 32.0932 17.0629 32.3998 17.8 32.3998C18.5085 32.3998 19.2251 32.1126 19.744 31.5938L18.6833 30.5331L19.744 31.5938L20.8167 30.5211L21.8227 31.5271C22.3416 32.046 23.0582 32.3331 23.7667 32.3331C24.5038 32.3331 25.1768 32.0265 25.6735 31.563ZM35.8884 19.4159L35.9167 27.7498C35.9167 27.7505 35.9167 27.7512 35.9167 27.7519C35.9155 31.8392 32.5875 35.1664 28.5 35.1664H13C8.91176 35.1664 5.58333 31.838 5.58333 27.7498V19.4164L35.8884 19.4159Z" fill="#D73737" stroke="#D73737" stroke-width="3"/>
</svg>
