<svg width="40" height="40" viewBox="0 0 40 40" fill="none" xmlns="http://www.w3.org/2000/svg">
<path d="M35.5305 14.1228C35.8658 14.7285 35.3871 15.4167 34.6948 15.4167H4.33325C3.78097 15.4167 3.33325 14.969 3.33325 14.4167V10.7C3.33325 6.63334 6.63325 3.33334 10.6999 3.33334H14.5666C17.2833 3.33334 18.1333 4.21668 19.2166 5.66668L21.5499 8.76668C22.0666 9.45001 22.1333 9.53334 23.0999 9.53334H27.7499C31.0962 9.53334 34.0144 11.3842 35.5305 14.1228Z" fill="#FFFBFF"/>
<path d="M36.6366 18.9125C36.6348 18.3615 36.1876 17.9159 35.6366 17.9159L4.33324 17.9164C3.78096 17.9164 3.33325 18.3641 3.33325 18.9164V27.7498C3.33325 32.6664 7.33325 36.6664 12.2499 36.6664H27.7499C32.6666 36.6664 36.6666 32.6664 36.6666 27.7498L36.6366 18.9125ZM23.8999 30.4664C23.6499 30.6998 23.3333 30.8331 23.0166 30.8331C22.6999 30.8331 22.3666 30.6998 22.1333 30.4664L20.0666 28.3998L17.9333 30.5331C17.6999 30.7664 17.3666 30.8998 17.0499 30.8998C16.7333 30.8998 16.4166 30.7664 16.1666 30.5331C15.6833 30.0498 15.6833 29.2498 16.1666 28.7664L18.2999 26.6331L16.2333 24.5664C15.7499 24.0831 15.7499 23.2831 16.2333 22.7998C16.7333 22.3164 17.5166 22.3164 17.9999 22.7998L20.0666 24.8664L22.0666 22.8664C22.5499 22.3831 23.3333 22.3831 23.8333 22.8664C24.3166 23.3664 24.3166 24.1498 23.8333 24.6331L21.8333 26.6331L23.8999 28.6998C24.3833 29.1831 24.3833 29.9831 23.8999 30.4664Z" fill="#FFFBFF"/>
</svg>
