<svg width="24" height="24" viewBox="0 0 24 24" fill="none" xmlns="http://www.w3.org/2000/svg">
<path d="M21.49 7.19844V7.2V16.8C21.49 18.2946 21.0251 19.4578 20.2364 20.2464C19.4478 21.0351 18.2846 21.5 16.79 21.5H14.2C12.7054 21.5 11.5422 21.0351 10.7536 20.2464C9.96492 19.4578 9.5 18.2946 9.5 16.8V13.25H15.25C15.9361 13.25 16.5 12.6861 16.5 12C16.5 11.3139 15.9361 10.75 15.25 10.75H9.5V7.2C9.5 5.70545 9.96492 4.54218 10.7536 3.75355C11.5422 2.96492 12.7054 2.5 14.2 2.5H16.8C18.2946 2.5 19.4577 2.96497 20.245 3.75331C21.0321 4.54154 21.4947 5.70427 21.49 7.19844Z" fill="#CD0606" stroke="#CD0606"/>
<path d="M4.20639 10.8963L3.35283 11.7498H4.55994H8.49994V12.2498H4.55994H3.35283L4.20639 13.1034L6.27639 15.1734C6.37113 15.2681 6.37113 15.4316 6.27639 15.5263C6.18165 15.621 6.01823 15.621 5.9235 15.5263L2.57349 12.1763C2.47876 12.0816 2.47876 11.9181 2.57349 11.8234L5.92349 8.4734C6.01823 8.37866 6.18165 8.37866 6.27639 8.4734L6.28248 8.47949L6.28878 8.48537C6.32119 8.51562 6.34994 8.57448 6.34994 8.64984C6.34994 8.71439 6.32768 8.775 6.27639 8.82629L4.20639 10.8963Z" fill="#292D32" stroke="#CD0606"/>
</svg>
