<svg width="24" height="24" viewBox="0 0 24 24" fill="none" xmlns="http://www.w3.org/2000/svg">
<path d="M16.83 15.6402C17.5 15.2002 18.38 15.6802 18.38 16.4802V17.7702C18.38 19.0402 17.39 20.4002 16.2 20.8002L13.01 21.8602C12.45 22.0502 11.54 22.0502 10.99 21.8602L7.8 20.8002C6.6 20.4002 5.62 19.0402 5.62 17.7702V16.4702C5.62 15.6802 6.5 15.2002 7.16 15.6302L9.22 16.9702C10.01 17.5002 11.01 17.7602 12.01 17.7602C13.01 17.7602 14.01 17.5002 14.8 16.9702L16.83 15.6402Z" fill="#605D62"/>
<path d="M19.98 6.46L13.99 2.53C12.91 1.82 11.13 1.82 10.05 2.53L4.03002 6.46C2.10002 7.71 2.10002 10.54 4.03002 11.8L5.63002 12.84L10.05 15.72C11.13 16.43 12.91 16.43 13.99 15.72L18.38 12.84L19.75 11.94V15C19.75 15.41 20.09 15.75 20.5 15.75C20.91 15.75 21.25 15.41 21.25 15V10.08C21.65 8.79 21.24 7.29 19.98 6.46Z" fill="#605D62"/>
</svg>
