<svg width="21" height="20" viewBox="0 0 21 20" fill="none" xmlns="http://www.w3.org/2000/svg">
<path d="M15.5019 2.21412L15.5017 2.21396L13.7717 1.22396L13.7643 1.21976L13.7644 1.2197C13.222 0.897034 12.5063 1.08276 12.1711 1.64332L12.0638 1.82866C12.0636 1.82902 12.0634 1.82938 12.0632 1.82973C11.5599 2.70714 10.8257 3.2575 9.98875 3.2575C9.15219 3.2575 8.41566 2.7076 7.90741 1.83073L7.90729 1.83052L7.79729 1.64052L7.79553 1.63748L7.79554 1.63747C7.48218 1.08736 6.77192 0.894704 6.22565 1.2197L6.21837 1.22403L6.21834 1.22396L4.48834 2.21396L4.48807 2.21412C3.82207 2.59469 3.58942 3.45652 3.97313 4.1302C4.48124 5.00241 4.59087 5.91165 4.17295 6.6351C3.75511 7.35843 2.91145 7.72 1.9 7.72C1.13443 7.72 0.5 8.34785 0.5 9.12V10.88C0.5 11.6456 1.12785 12.28 1.9 12.28C2.91153 12.28 3.75545 12.6417 4.17321 13.3666C4.59079 14.0912 4.48109 15.0026 3.97345 15.8792C3.58991 16.5519 3.8208 17.4046 4.48807 17.7859L4.48834 17.786L6.21834 18.776L6.22568 18.7802L6.22565 18.7803C6.76799 19.103 7.48371 18.9172 7.81889 18.3567L7.92622 18.1713C7.92639 18.171 7.92657 18.1707 7.92674 18.1704C8.43006 17.2929 9.16421 16.7425 10.0012 16.7425C10.8378 16.7425 11.5743 17.2924 12.0826 18.1693L12.0827 18.1695L12.1911 18.3567C12.5263 18.9172 13.242 19.103 13.7844 18.7803L13.7916 18.776L13.7917 18.776L15.5217 17.786L15.5219 17.7859C16.1902 17.404 16.4191 16.5414 16.0371 15.8801L15.5019 2.21412ZM15.5019 2.21412C16.1696 2.59564 16.4004 3.44909 16.0159 4.12193M15.5019 2.21412L16.0159 4.12193M16.0159 4.12193C15.5131 4.99928 15.4072 5.91051 15.826 6.63418M16.0159 4.12193L15.826 6.63418M15.826 6.63418C16.245 7.35819 17.0881 7.72 18.1 7.72M15.826 6.63418L18.1 7.72M18.1 7.72C18.8705 7.72 19.5014 8.35333 19.51 9.1226L18.1 7.72ZM6.25 10C6.25 12.0661 7.93386 13.75 10 13.75C12.0661 13.75 13.75 12.0661 13.75 10C13.75 7.93385 12.0661 6.25 10 6.25C7.93386 6.25 6.25 7.93385 6.25 10Z" fill="#605D62" stroke="#605D62"/>
</svg>
