<svg width="25" height="24" viewBox="0 0 25 24" fill="none" xmlns="http://www.w3.org/2000/svg">
<path d="M21.667 5.97998C18.337 5.64998 14.987 5.47998 11.647 5.47998C9.66699 5.47998 7.68699 5.57998 5.70699 5.77998L3.66699 5.97998" stroke="#FFFBFF" stroke-linecap="round" stroke-linejoin="round"/>
<path d="M9.16699 4.97L9.38699 3.66C9.54699 2.71 9.66699 2 11.357 2H13.977C15.667 2 15.797 2.75 15.947 3.67L16.167 4.97" stroke="#FFFBFF" stroke-linecap="round" stroke-linejoin="round"/>
<path d="M19.5169 9.14001L18.8669 19.21C18.7569 20.78 18.6669 22 15.8769 22H9.45689C6.66689 22 6.57689 20.78 6.46689 19.21L5.81689 9.14001" stroke="#FFFBFF" stroke-linecap="round" stroke-linejoin="round"/>
<path d="M10.9971 16.5H14.3271" stroke="#FFFBFF" stroke-width="1.5" stroke-linecap="round" stroke-linejoin="round"/>
<path d="M10.167 12.5H15.167" stroke="#FFFBFF" stroke-width="1.5" stroke-linecap="round" stroke-linejoin="round"/>
</svg>
